<?xml version="1.0" encoding="UTF-8"?>
<svg xmlns="http://www.w3.org/2000/svg" xmlns:xlink="http://www.w3.org/1999/xlink" width="42px" height="50px" viewBox="0 0 42 50" version="1.1">
<g id="surface1">
<path style=" stroke:none;fill-rule:nonzero;fill:rgb(0%,0%,0%);fill-opacity:1;" d="M 8.484375 27.804688 L 8.875 28.984375 L 10.113281 28.984375 L 9.105469 29.707031 L 9.488281 30.882812 L 8.484375 30.15625 L 7.480469 30.882812 L 7.859375 29.707031 L 6.855469 28.984375 L 8.101562 28.984375 Z M 8.484375 27.804688 "/>
<path style=" stroke:none;fill-rule:nonzero;fill:rgb(0%,0%,0%);fill-opacity:1;" d="M 11.890625 27.804688 L 12.269531 28.984375 L 13.523438 28.984375 L 12.511719 29.707031 L 12.894531 30.882812 L 11.890625 30.15625 L 10.882812 30.882812 L 11.265625 29.707031 L 10.261719 28.984375 L 11.507812 28.984375 Z M 11.890625 27.804688 "/>
<path style=" stroke:none;fill-rule:nonzero;fill:rgb(0%,0%,0%);fill-opacity:1;" d="M 15.300781 27.804688 L 15.675781 28.984375 L 16.921875 28.984375 L 15.917969 29.707031 L 16.300781 30.882812 L 15.300781 30.15625 L 14.289062 30.882812 L 14.671875 29.707031 L 13.667969 28.984375 L 14.914062 28.984375 Z M 15.300781 27.804688 "/>
<path style=" stroke:none;fill-rule:nonzero;fill:rgb(0%,0%,0%);fill-opacity:1;" d="M 8.613281 32.566406 C 8.59375 33.394531 8.585938 34.15625 8.566406 34.84375 C 8.558594 35.125 8.558594 35.417969 8.546875 35.691406 C 8.539062 35.972656 8.527344 36.230469 8.527344 36.457031 C 8.519531 36.6875 8.519531 36.878906 8.507812 37.03125 C 8.5 37.1875 8.5 37.28125 8.5 37.316406 C 8.492188 37.421875 8.453125 37.507812 8.40625 37.542969 C 8.351562 37.589844 8.269531 37.609375 8.167969 37.609375 C 8.066406 37.609375 7.992188 37.574219 7.957031 37.507812 C 7.921875 37.433594 7.902344 37.359375 7.902344 37.269531 C 7.902344 37.214844 7.902344 37.066406 7.902344 36.839844 C 7.902344 36.601562 7.910156 36.328125 7.910156 36 C 7.917969 35.671875 7.917969 35.324219 7.917969 34.9375 C 7.917969 34.5625 7.925781 34.210938 7.925781 33.878906 C 7.933594 33.550781 7.933594 33.265625 7.933594 33.015625 C 7.933594 32.777344 7.933594 32.625 7.933594 32.5625 L 7.214844 32.5625 C 7.167969 32.554688 7.140625 32.542969 7.113281 32.535156 C 7.085938 32.515625 7.066406 32.488281 7.046875 32.453125 C 7.027344 32.417969 7.019531 32.359375 7.019531 32.300781 C 7.019531 32.160156 7.054688 32.070312 7.140625 32.042969 C 7.222656 32.011719 7.296875 31.992188 7.382812 31.992188 C 7.410156 31.992188 7.472656 31.992188 7.574219 31.992188 C 7.667969 31.992188 7.785156 32 7.917969 32 C 8.046875 32 8.1875 32.007812 8.320312 32.007812 C 8.460938 32.007812 8.597656 32.015625 8.726562 32.015625 C 8.855469 32.015625 8.96875 32.023438 9.058594 32.023438 C 9.148438 32.023438 9.210938 32.023438 9.238281 32.023438 C 9.320312 32.03125 9.394531 32.046875 9.480469 32.085938 C 9.5625 32.121094 9.601562 32.214844 9.601562 32.351562 C 9.59375 32.460938 9.546875 32.527344 9.460938 32.546875 C 9.378906 32.566406 9.304688 32.574219 9.230469 32.574219 L 8.605469 32.574219 L 8.605469 32.566406 Z M 8.613281 32.566406 "/>
<path style=" stroke:none;fill-rule:nonzero;fill:rgb(0%,0%,0%);fill-opacity:1;" d="M 12.199219 34.667969 L 12.152344 32.304688 C 12.144531 32.238281 12.144531 32.183594 12.171875 32.128906 C 12.179688 32.082031 12.207031 32.046875 12.246094 32.011719 C 12.28125 31.976562 12.347656 31.957031 12.421875 31.957031 C 12.496094 31.957031 12.550781 31.964844 12.597656 31.984375 C 12.632812 32.003906 12.664062 32.03125 12.679688 32.0625 C 12.695312 32.097656 12.703125 32.136719 12.703125 32.191406 C 12.703125 32.246094 12.703125 32.292969 12.703125 32.34375 C 12.703125 32.371094 12.703125 32.472656 12.710938 32.621094 C 12.71875 32.773438 12.71875 32.960938 12.730469 33.175781 C 12.738281 33.394531 12.738281 33.648438 12.757812 33.921875 C 12.765625 34.207031 12.777344 34.492188 12.785156 34.773438 C 12.792969 35.066406 12.804688 35.347656 12.804688 35.621094 C 12.8125 35.902344 12.8125 36.148438 12.824219 36.371094 C 12.835938 36.589844 12.832031 36.78125 12.832031 36.925781 C 12.832031 37.070312 12.832031 37.164062 12.832031 37.199219 C 12.824219 37.300781 12.796875 37.378906 12.757812 37.4375 C 12.722656 37.492188 12.652344 37.53125 12.550781 37.53125 C 12.441406 37.539062 12.367188 37.503906 12.320312 37.4375 C 12.273438 37.363281 12.253906 37.273438 12.253906 37.15625 C 12.253906 37.128906 12.253906 37.074219 12.253906 37.003906 C 12.253906 36.929688 12.253906 36.847656 12.253906 36.746094 C 12.253906 36.65625 12.246094 36.546875 12.246094 36.433594 C 12.246094 36.328125 12.246094 36.214844 12.246094 36.09375 C 12.238281 35.839844 12.238281 35.546875 12.238281 35.234375 C 12.15625 35.234375 12.054688 35.234375 11.921875 35.234375 C 11.796875 35.234375 11.675781 35.234375 11.546875 35.234375 C 11.417969 35.234375 11.289062 35.242188 11.167969 35.253906 C 11.046875 35.261719 10.9375 35.273438 10.855469 35.289062 C 10.855469 35.4375 10.855469 35.589844 10.855469 35.765625 C 10.855469 35.9375 10.863281 36.117188 10.863281 36.292969 C 10.863281 36.472656 10.871094 36.648438 10.871094 36.8125 C 10.871094 36.980469 10.871094 37.125 10.871094 37.253906 C 10.863281 37.351562 10.851562 37.433594 10.835938 37.492188 C 10.816406 37.546875 10.753906 37.574219 10.640625 37.574219 C 10.527344 37.574219 10.445312 37.554688 10.390625 37.519531 C 10.335938 37.484375 10.308594 37.390625 10.296875 37.253906 C 10.289062 37.21875 10.289062 37.113281 10.277344 36.972656 C 10.269531 36.816406 10.269531 36.625 10.257812 36.40625 C 10.25 36.175781 10.25 35.929688 10.238281 35.644531 C 10.230469 35.363281 10.21875 35.078125 10.21875 34.785156 C 10.210938 34.492188 10.210938 34.210938 10.199219 33.933594 C 10.191406 33.652344 10.191406 33.40625 10.191406 33.167969 C 10.191406 32.941406 10.191406 32.738281 10.191406 32.582031 C 10.191406 32.425781 10.191406 32.328125 10.191406 32.28125 C 10.191406 32.207031 10.199219 32.152344 10.21875 32.105469 C 10.238281 32.070312 10.253906 32.03125 10.285156 32.015625 C 10.3125 31.996094 10.339844 31.988281 10.367188 31.988281 C 10.394531 31.988281 10.421875 31.988281 10.449219 31.988281 C 10.476562 31.988281 10.503906 31.988281 10.542969 31.996094 C 10.578125 32.003906 10.617188 32.015625 10.652344 32.039062 C 10.6875 32.066406 10.71875 32.113281 10.746094 32.167969 C 10.773438 32.234375 10.78125 32.316406 10.792969 32.433594 C 10.800781 32.542969 10.800781 32.65625 10.8125 32.773438 C 10.824219 32.894531 10.820312 33.039062 10.832031 33.214844 C 10.839844 33.386719 10.839844 33.589844 10.851562 33.816406 C 10.859375 34.042969 10.859375 34.328125 10.878906 34.644531 Z M 12.199219 34.667969 "/>
<path style=" stroke:none;fill-rule:nonzero;fill:rgb(0%,0%,0%);fill-opacity:1;" d="M 13.902344 32.0625 C 14.078125 32.042969 14.28125 32.035156 14.507812 32.019531 C 14.738281 32 14.941406 31.992188 15.136719 31.992188 C 15.34375 31.992188 15.492188 32 15.585938 32.027344 C 15.695312 32.050781 15.761719 32.097656 15.78125 32.152344 C 15.800781 32.207031 15.808594 32.253906 15.800781 32.300781 C 15.792969 32.34375 15.773438 32.390625 15.734375 32.453125 C 15.707031 32.519531 15.625 32.5625 15.503906 32.59375 C 15.4375 32.613281 15.335938 32.621094 15.210938 32.628906 C 15.082031 32.636719 14.953125 32.648438 14.824219 32.65625 C 14.667969 32.660156 14.5 32.671875 14.339844 32.679688 L 14.359375 34.5 C 14.640625 34.5 14.882812 34.5 15.078125 34.5 C 15.273438 34.5 15.390625 34.507812 15.425781 34.519531 C 15.445312 34.527344 15.480469 34.535156 15.519531 34.550781 C 15.554688 34.558594 15.59375 34.578125 15.621094 34.605469 C 15.648438 34.632812 15.675781 34.660156 15.695312 34.699219 C 15.714844 34.734375 15.722656 34.792969 15.714844 34.851562 C 15.707031 34.90625 15.6875 34.960938 15.660156 35 C 15.632812 35.035156 15.59375 35.066406 15.550781 35.09375 C 15.503906 35.121094 15.476562 35.128906 15.441406 35.140625 C 15.40625 35.148438 15.386719 35.148438 15.375 35.148438 L 14.878906 35.148438 C 14.757812 35.148438 14.636719 35.148438 14.535156 35.15625 C 14.4375 35.160156 14.382812 35.171875 14.382812 35.179688 L 14.382812 36.085938 C 14.382812 36.339844 14.382812 36.640625 14.390625 36.980469 C 14.46875 36.972656 14.570312 36.972656 14.703125 36.960938 C 14.824219 36.953125 14.945312 36.953125 15.074219 36.953125 C 15.203125 36.953125 15.320312 36.953125 15.441406 36.953125 C 15.5625 36.953125 15.664062 36.953125 15.746094 36.960938 C 15.828125 36.96875 15.894531 36.996094 15.929688 37.050781 C 15.964844 37.105469 15.976562 37.191406 15.964844 37.273438 C 15.957031 37.351562 15.917969 37.417969 15.863281 37.445312 C 15.808594 37.472656 15.722656 37.492188 15.613281 37.511719 C 15.546875 37.519531 15.445312 37.519531 15.300781 37.519531 C 15.152344 37.519531 15.003906 37.527344 14.839844 37.527344 C 14.683594 37.527344 14.523438 37.535156 14.398438 37.535156 C 14.269531 37.535156 14.167969 37.535156 14.128906 37.535156 C 14.054688 37.535156 13.988281 37.515625 13.945312 37.480469 C 13.898438 37.445312 13.871094 37.371094 13.851562 37.261719 C 13.851562 37.234375 13.851562 37.132812 13.84375 36.980469 C 13.835938 36.824219 13.835938 36.632812 13.824219 36.40625 C 13.816406 36.175781 13.816406 35.921875 13.804688 35.628906 C 13.796875 35.347656 13.785156 35.054688 13.785156 34.761719 C 13.777344 34.46875 13.777344 34.175781 13.765625 33.894531 C 13.757812 33.609375 13.757812 33.351562 13.746094 33.117188 C 13.746094 32.890625 13.738281 32.695312 13.738281 32.542969 C 13.738281 32.386719 13.738281 32.296875 13.738281 32.269531 C 13.746094 32.160156 13.765625 32.09375 13.804688 32.066406 C 13.816406 32.089844 13.855469 32.070312 13.902344 32.0625 Z M 13.902344 32.0625 "/>
<path style=" stroke:none;fill-rule:nonzero;fill:rgb(0%,0%,0%);fill-opacity:1;" d="M 21.671875 36.144531 C 21.691406 35.9375 21.707031 35.699219 21.738281 35.433594 C 21.765625 35.175781 21.804688 34.902344 21.832031 34.628906 C 21.867188 34.355469 21.90625 34.089844 21.933594 33.816406 C 21.96875 33.550781 22 33.3125 22.035156 33.09375 C 22.0625 32.875 22.089844 32.699219 22.117188 32.554688 C 22.136719 32.40625 22.152344 32.316406 22.152344 32.28125 C 22.171875 32.125 22.246094 32.039062 22.351562 32.039062 C 22.460938 32.039062 22.527344 32.066406 22.554688 32.132812 C 22.582031 32.199219 22.601562 32.28125 22.601562 32.371094 C 22.601562 32.398438 22.59375 32.480469 22.582031 32.621094 C 22.574219 32.757812 22.554688 32.941406 22.527344 33.160156 C 22.507812 33.378906 22.480469 33.625 22.453125 33.902344 C 22.425781 34.175781 22.386719 34.449219 22.359375 34.742188 C 22.332031 35.023438 22.296875 35.308594 22.269531 35.582031 C 22.242188 35.855469 22.203125 36.109375 22.175781 36.332031 C 22.148438 36.558594 22.121094 36.742188 22.101562 36.898438 C 22.082031 37.050781 22.054688 37.144531 22.046875 37.179688 C 22 37.328125 21.953125 37.425781 21.898438 37.480469 C 21.84375 37.535156 21.75 37.5625 21.628906 37.5625 C 21.488281 37.5625 21.390625 37.527344 21.335938 37.453125 C 21.28125 37.378906 21.234375 37.261719 21.207031 37.085938 C 21.199219 37.023438 21.179688 36.894531 21.140625 36.695312 C 21.113281 36.492188 21.066406 36.273438 21.03125 36.007812 C 20.984375 35.753906 20.949219 35.476562 20.902344 35.191406 C 20.855469 34.910156 20.820312 34.644531 20.78125 34.40625 C 20.746094 34.167969 20.707031 33.894531 20.652344 33.585938 C 20.605469 33.558594 20.578125 33.558594 20.5625 33.585938 C 20.535156 33.792969 20.496094 34.03125 20.460938 34.285156 C 20.425781 34.539062 20.386719 34.808594 20.339844 35.074219 C 20.304688 35.339844 20.257812 35.59375 20.21875 35.847656 C 20.183594 36.101562 20.144531 36.332031 20.109375 36.535156 C 20.074219 36.734375 20.042969 36.910156 20.015625 37.046875 C 19.988281 37.1875 19.96875 37.277344 19.960938 37.316406 C 19.933594 37.421875 19.894531 37.488281 19.859375 37.523438 C 19.8125 37.550781 19.765625 37.570312 19.703125 37.570312 L 19.679688 37.570312 C 19.644531 37.570312 19.605469 37.570312 19.578125 37.570312 C 19.550781 37.570312 19.523438 37.550781 19.496094 37.535156 C 19.46875 37.515625 19.449219 37.480469 19.429688 37.433594 C 19.410156 37.386719 19.394531 37.328125 19.375 37.234375 C 19.367188 37.179688 19.347656 37.058594 19.308594 36.894531 C 19.28125 36.726562 19.234375 36.519531 19.1875 36.28125 C 19.140625 36.042969 19.09375 35.78125 19.039062 35.492188 C 18.984375 35.210938 18.929688 34.917969 18.882812 34.625 C 18.828125 34.332031 18.785156 34.050781 18.730469 33.777344 C 18.675781 33.503906 18.636719 33.257812 18.589844 33.035156 C 18.554688 32.816406 18.515625 32.644531 18.496094 32.496094 C 18.46875 32.355469 18.460938 32.277344 18.460938 32.25 C 18.460938 32.183594 18.46875 32.140625 18.488281 32.101562 C 18.507812 32.066406 18.523438 32.035156 18.554688 32.03125 C 18.582031 32.011719 18.609375 32.003906 18.648438 32.003906 C 18.6875 32.003906 18.714844 32.003906 18.742188 32.003906 C 18.796875 32.003906 18.847656 32.03125 18.894531 32.074219 C 18.949219 32.121094 18.988281 32.230469 19.023438 32.414062 C 19.03125 32.46875 19.050781 32.570312 19.070312 32.695312 C 19.089844 32.824219 19.117188 32.96875 19.144531 33.136719 C 19.171875 33.300781 19.210938 33.484375 19.238281 33.664062 C 19.273438 33.859375 19.3125 34.046875 19.347656 34.238281 C 19.429688 34.6875 19.523438 35.171875 19.625 35.703125 C 19.652344 35.730469 19.6875 35.730469 19.714844 35.703125 C 19.742188 35.546875 19.78125 35.355469 19.816406 35.136719 C 19.851562 34.914062 19.890625 34.6875 19.9375 34.449219 C 19.972656 34.210938 20.019531 33.972656 20.058594 33.726562 C 20.09375 33.488281 20.132812 33.261719 20.167969 33.050781 C 20.203125 32.84375 20.234375 32.667969 20.25 32.511719 C 20.269531 32.355469 20.285156 32.246094 20.296875 32.183594 C 20.324219 32.082031 20.363281 32.019531 20.425781 32.003906 C 20.480469 31.984375 20.535156 31.976562 20.597656 31.976562 C 20.617188 31.976562 20.644531 31.976562 20.671875 31.984375 C 20.699219 31.992188 20.726562 32.003906 20.765625 32.035156 C 20.792969 32.0625 20.820312 32.109375 20.847656 32.164062 C 20.875 32.21875 20.902344 32.292969 20.921875 32.390625 C 20.941406 32.472656 20.96875 32.621094 21.003906 32.839844 C 21.039062 33.058594 21.085938 33.304688 21.132812 33.589844 C 21.179688 33.871094 21.234375 34.15625 21.28125 34.464844 C 21.335938 34.765625 21.382812 35.050781 21.421875 35.292969 C 21.464844 35.546875 21.511719 35.832031 21.566406 36.160156 C 21.625 36.171875 21.652344 36.171875 21.671875 36.144531 Z M 21.671875 36.144531 "/>
<path style=" stroke:none;fill-rule:nonzero;fill:rgb(0%,0%,0%);fill-opacity:1;" d="M 24.589844 31.972656 C 24.832031 31.980469 25.03125 32.0625 25.195312 32.21875 C 25.371094 32.382812 25.511719 32.59375 25.621094 32.839844 C 25.730469 33.09375 25.8125 33.378906 25.867188 33.6875 C 25.921875 34 25.949219 34.308594 25.949219 34.621094 C 25.949219 34.84375 25.941406 35.0625 25.921875 35.289062 C 25.902344 35.515625 25.875 35.746094 25.839844 35.964844 C 25.808594 36.183594 25.75 36.394531 25.6875 36.585938 C 25.621094 36.785156 25.539062 36.953125 25.4375 37.105469 C 25.335938 37.253906 25.214844 37.371094 25.085938 37.460938 C 24.945312 37.554688 24.792969 37.589844 24.609375 37.589844 C 24.359375 37.589844 24.148438 37.507812 23.984375 37.347656 C 23.816406 37.195312 23.6875 36.984375 23.597656 36.734375 C 23.503906 36.488281 23.429688 36.207031 23.394531 35.894531 C 23.359375 35.582031 23.339844 35.28125 23.339844 34.980469 C 23.339844 34.660156 23.359375 34.3125 23.386719 33.957031 C 23.414062 33.601562 23.480469 33.273438 23.5625 32.980469 C 23.65625 32.679688 23.773438 32.441406 23.941406 32.242188 C 24.101562 32.0625 24.324219 31.972656 24.589844 31.972656 Z M 24.628906 32.558594 C 24.527344 32.558594 24.433594 32.585938 24.34375 32.652344 C 24.25 32.714844 24.175781 32.832031 24.113281 33.023438 C 24.050781 33.207031 23.996094 33.464844 23.960938 33.792969 C 23.925781 34.121094 23.90625 34.550781 23.90625 35.082031 C 23.90625 35.519531 23.933594 35.867188 24 36.113281 C 24.0625 36.363281 24.136719 36.554688 24.21875 36.671875 C 24.300781 36.796875 24.386719 36.871094 24.46875 36.910156 C 24.550781 36.945312 24.609375 36.957031 24.644531 36.957031 C 24.691406 36.957031 24.753906 36.9375 24.839844 36.902344 C 24.921875 36.867188 25.003906 36.761719 25.085938 36.609375 C 25.167969 36.453125 25.242188 36.214844 25.308594 35.894531 C 25.375 35.574219 25.402344 35.128906 25.402344 34.558594 C 25.402344 34.195312 25.375 33.886719 25.328125 33.625 C 25.28125 33.371094 25.21875 33.171875 25.144531 33.003906 C 25.070312 32.851562 24.988281 32.730469 24.898438 32.65625 C 24.792969 32.601562 24.710938 32.566406 24.628906 32.558594 Z M 24.628906 32.558594 "/>
<path style=" stroke:none;fill-rule:nonzero;fill:rgb(0%,0%,0%);fill-opacity:1;" d="M 27.078125 32.019531 C 27.300781 32.011719 27.523438 32.019531 27.738281 32.042969 C 27.949219 32.070312 28.144531 32.144531 28.300781 32.246094 C 28.464844 32.34375 28.59375 32.492188 28.683594 32.683594 C 28.777344 32.878906 28.824219 33.132812 28.824219 33.445312 C 28.816406 33.726562 28.789062 33.964844 28.730469 34.167969 C 28.675781 34.367188 28.601562 34.539062 28.507812 34.679688 C 28.429688 34.820312 28.335938 34.933594 28.234375 35.027344 C 28.140625 35.121094 28.050781 35.179688 27.976562 35.234375 C 28.058594 35.445312 28.152344 35.65625 28.253906 35.855469 C 28.347656 36.066406 28.4375 36.257812 28.519531 36.449219 C 28.601562 36.632812 28.675781 36.796875 28.742188 36.933594 C 28.808594 37.070312 28.84375 37.171875 28.863281 37.234375 C 28.890625 37.34375 28.898438 37.414062 28.890625 37.453125 C 28.871094 37.488281 28.816406 37.535156 28.734375 37.574219 C 28.550781 37.65625 28.394531 37.574219 28.285156 37.335938 C 28.230469 37.207031 28.164062 37.050781 28.101562 36.878906 C 28.035156 36.707031 27.953125 36.53125 27.871094 36.351562 C 27.789062 36.175781 27.703125 36.011719 27.621094 35.855469 C 27.542969 35.703125 27.457031 35.582031 27.382812 35.488281 C 27.375 35.554688 27.375 35.636719 27.375 35.746094 C 27.375 35.851562 27.375 35.972656 27.375 36.097656 C 27.375 36.226562 27.375 36.367188 27.375 36.511719 C 27.375 36.660156 27.375 36.804688 27.375 36.953125 L 27.375 37.328125 C 27.367188 37.445312 27.339844 37.527344 27.28125 37.546875 C 27.226562 37.574219 27.140625 37.582031 27.058594 37.582031 C 26.964844 37.582031 26.902344 37.5625 26.855469 37.527344 C 26.808594 37.492188 26.789062 37.417969 26.78125 37.308594 C 26.78125 37.28125 26.78125 37.179688 26.78125 37.027344 C 26.78125 36.871094 26.78125 36.679688 26.78125 36.449219 C 26.78125 36.222656 26.78125 35.96875 26.78125 35.675781 C 26.78125 35.394531 26.78125 35.101562 26.78125 34.800781 C 26.78125 34.5 26.78125 34.207031 26.78125 33.921875 C 26.78125 33.640625 26.78125 33.375 26.78125 33.148438 C 26.78125 32.921875 26.78125 32.71875 26.78125 32.5625 C 26.78125 32.40625 26.78125 32.316406 26.78125 32.28125 C 26.773438 32.160156 26.808594 32.078125 26.882812 32.039062 C 26.929688 32.035156 27.003906 32.019531 27.078125 32.019531 Z M 27.316406 32.71875 C 27.316406 33 27.316406 33.285156 27.324219 33.550781 C 27.324219 33.777344 27.324219 34.015625 27.324219 34.261719 C 27.324219 34.511719 27.324219 34.710938 27.324219 34.882812 C 27.589844 34.855469 27.820312 34.738281 28.003906 34.53125 C 28.1875 34.320312 28.300781 34.027344 28.335938 33.652344 C 28.355469 33.472656 28.335938 33.304688 28.269531 33.179688 C 28.214844 33.050781 28.140625 32.941406 28.039062 32.867188 C 27.945312 32.792969 27.835938 32.738281 27.707031 32.699219 C 27.578125 32.660156 27.460938 32.65625 27.339844 32.671875 C 27.328125 32.664062 27.316406 32.683594 27.316406 32.71875 Z M 27.316406 32.71875 "/>
<path style=" stroke:none;fill-rule:nonzero;fill:rgb(0%,0%,0%);fill-opacity:1;" d="M 30.308594 37.046875 C 30.476562 37.046875 30.632812 37.046875 30.78125 37.054688 C 30.902344 37.0625 31.03125 37.0625 31.148438 37.0625 C 31.269531 37.0625 31.359375 37.0625 31.417969 37.0625 C 31.511719 37.070312 31.574219 37.097656 31.59375 37.15625 C 31.613281 37.210938 31.621094 37.265625 31.621094 37.3125 C 31.621094 37.363281 31.613281 37.429688 31.585938 37.484375 C 31.558594 37.539062 31.476562 37.578125 31.34375 37.578125 L 29.910156 37.570312 C 29.835938 37.570312 29.789062 37.550781 29.753906 37.515625 C 29.726562 37.480469 29.699219 37.394531 29.699219 37.269531 C 29.699219 37.066406 29.699219 36.800781 29.699219 36.492188 C 29.699219 36.171875 29.699219 35.835938 29.699219 35.476562 C 29.699219 35.125 29.707031 34.757812 29.707031 34.382812 C 29.707031 34.015625 29.714844 33.679688 29.714844 33.367188 C 29.714844 33.066406 29.722656 32.800781 29.722656 32.59375 C 29.722656 32.382812 29.722656 32.253906 29.722656 32.21875 C 29.730469 32.097656 29.769531 32.019531 29.84375 32 C 29.917969 31.980469 29.984375 31.964844 30.046875 31.964844 C 30.074219 31.964844 30.113281 31.964844 30.148438 31.972656 C 30.183594 31.980469 30.21875 32 30.246094 32.019531 C 30.273438 32.042969 30.300781 32.082031 30.320312 32.136719 C 30.339844 32.191406 30.347656 32.257812 30.339844 32.34375 C 30.332031 32.417969 30.332031 32.574219 30.320312 32.820312 C 30.3125 33.066406 30.3125 33.359375 30.300781 33.695312 C 30.292969 34.035156 30.292969 34.390625 30.28125 34.765625 C 30.273438 35.140625 30.273438 35.484375 30.261719 35.8125 C 30.253906 36.132812 30.253906 36.40625 30.253906 36.628906 C 30.253906 36.847656 30.253906 36.96875 30.253906 36.996094 C 30.261719 37.03125 30.28125 37.046875 30.308594 37.046875 Z M 30.308594 37.046875 "/>
<path style=" stroke:none;fill-rule:nonzero;fill:rgb(0%,0%,0%);fill-opacity:1;" d="M 32.640625 31.980469 C 32.921875 31.972656 33.191406 32.015625 33.460938 32.097656 C 33.714844 32.179688 33.945312 32.328125 34.152344 32.546875 C 34.347656 32.765625 34.503906 33.046875 34.609375 33.421875 C 34.71875 33.789062 34.765625 34.25 34.757812 34.820312 C 34.75 35.191406 34.691406 35.519531 34.609375 35.804688 C 34.519531 36.089844 34.410156 36.328125 34.28125 36.527344 C 34.152344 36.726562 34.003906 36.902344 33.835938 37.03125 C 33.683594 37.167969 33.515625 37.269531 33.359375 37.347656 C 33.203125 37.429688 33.054688 37.488281 32.914062 37.523438 C 32.777344 37.558594 32.660156 37.578125 32.566406 37.578125 C 32.417969 37.578125 32.335938 37.558594 32.296875 37.523438 C 32.269531 37.488281 32.25 37.421875 32.25 37.332031 C 32.25 37.304688 32.25 37.175781 32.25 36.949219 C 32.25 36.71875 32.257812 36.453125 32.257812 36.125 C 32.265625 35.804688 32.265625 35.453125 32.277344 35.066406 C 32.285156 34.683594 32.296875 34.304688 32.296875 33.941406 C 32.304688 33.578125 32.304688 33.242188 32.316406 32.929688 C 32.324219 32.617188 32.324219 32.386719 32.335938 32.226562 C 32.34375 32.171875 32.355469 32.125 32.371094 32.085938 C 32.390625 32.058594 32.417969 32.03125 32.453125 32.023438 C 32.480469 32.015625 32.519531 32.003906 32.546875 31.996094 C 32.59375 31.992188 32.621094 31.980469 32.640625 31.980469 Z M 32.847656 36.980469 C 32.957031 36.953125 33.097656 36.878906 33.253906 36.785156 C 33.410156 36.6875 33.570312 36.546875 33.710938 36.367188 C 33.859375 36.183594 33.988281 35.953125 34.089844 35.679688 C 34.191406 35.40625 34.246094 35.085938 34.257812 34.710938 C 34.265625 34.210938 34.210938 33.816406 34.109375 33.523438 C 34.007812 33.242188 33.886719 33.027344 33.738281 32.894531 C 33.59375 32.753906 33.445312 32.671875 33.289062 32.648438 C 33.132812 32.621094 33.003906 32.601562 32.902344 32.601562 Z M 32.847656 36.980469 "/>
<path style=" stroke:none;fill-rule:nonzero;fill:rgb(0%,0%,0%);fill-opacity:1;" d="M 24.175781 28.390625 C 24.167969 28.917969 24.15625 29.40625 24.140625 29.84375 C 24.140625 30.023438 24.132812 30.207031 24.121094 30.390625 C 24.113281 30.570312 24.113281 30.730469 24.101562 30.871094 C 24.101562 31.019531 24.09375 31.136719 24.09375 31.238281 C 24.09375 31.339844 24.085938 31.394531 24.085938 31.410156 C 24.078125 31.484375 24.0625 31.53125 24.023438 31.558594 C 23.984375 31.585938 23.929688 31.59375 23.847656 31.59375 C 23.773438 31.59375 23.726562 31.574219 23.699219 31.527344 C 23.671875 31.480469 23.664062 31.433594 23.664062 31.375 C 23.664062 31.339844 23.664062 31.246094 23.664062 31.097656 C 23.664062 30.953125 23.671875 30.773438 23.671875 30.558594 C 23.671875 30.351562 23.679688 30.132812 23.679688 29.882812 C 23.679688 29.644531 23.6875 29.417969 23.6875 29.210938 C 23.6875 29 23.695312 28.816406 23.695312 28.660156 C 23.695312 28.507812 23.695312 28.40625 23.695312 28.367188 L 23.179688 28.367188 C 23.152344 28.367188 23.125 28.359375 23.105469 28.347656 C 23.085938 28.339844 23.070312 28.320312 23.058594 28.292969 C 23.050781 28.269531 23.039062 28.242188 23.039062 28.195312 C 23.039062 28.101562 23.066406 28.046875 23.121094 28.027344 C 23.175781 28.007812 23.226562 27.992188 23.292969 27.992188 C 23.3125 27.992188 23.359375 27.992188 23.433594 27.992188 C 23.5 27.992188 23.582031 27.992188 23.675781 28 C 23.769531 28 23.859375 28 23.960938 28.007812 C 24.0625 28.007812 24.152344 28.007812 24.242188 28.015625 C 24.335938 28.023438 24.410156 28.015625 24.472656 28.023438 C 24.539062 28.023438 24.582031 28.023438 24.601562 28.023438 C 24.65625 28.023438 24.710938 28.042969 24.777344 28.058594 C 24.832031 28.085938 24.859375 28.140625 24.859375 28.226562 C 24.851562 28.296875 24.824219 28.332031 24.757812 28.351562 C 24.703125 28.359375 24.648438 28.371094 24.589844 28.371094 L 24.164062 28.371094 L 24.164062 28.390625 Z M 24.175781 28.390625 "/>
<path style=" stroke:none;fill-rule:nonzero;fill:rgb(0%,0%,0%);fill-opacity:1;" d="M 25.539062 28.042969 C 25.695312 28.035156 25.851562 28.042969 26.007812 28.0625 C 26.164062 28.082031 26.292969 28.128906 26.414062 28.191406 C 26.535156 28.257812 26.625 28.355469 26.6875 28.472656 C 26.753906 28.59375 26.789062 28.753906 26.789062 28.953125 C 26.789062 29.136719 26.761719 29.292969 26.722656 29.421875 C 26.679688 29.546875 26.632812 29.660156 26.570312 29.75 C 26.503906 29.84375 26.441406 29.914062 26.375 29.96875 C 26.308594 30.023438 26.246094 30.070312 26.191406 30.109375 C 26.257812 30.234375 26.320312 30.375 26.386719 30.507812 C 26.453125 30.648438 26.515625 30.765625 26.582031 30.882812 C 26.648438 31.003906 26.6875 31.101562 26.734375 31.195312 C 26.78125 31.289062 26.808594 31.351562 26.816406 31.390625 C 26.835938 31.453125 26.84375 31.507812 26.835938 31.527344 C 26.828125 31.554688 26.789062 31.574219 26.726562 31.601562 C 26.601562 31.65625 26.488281 31.601562 26.40625 31.445312 C 26.371094 31.367188 26.324219 31.273438 26.265625 31.152344 C 26.210938 31.035156 26.15625 30.933594 26.097656 30.8125 C 26.042969 30.707031 25.976562 30.59375 25.914062 30.492188 C 25.847656 30.394531 25.796875 30.320312 25.742188 30.253906 C 25.742188 30.289062 25.734375 30.347656 25.734375 30.421875 C 25.734375 30.484375 25.734375 30.566406 25.734375 30.648438 C 25.734375 30.730469 25.734375 30.820312 25.734375 30.914062 C 25.734375 31.007812 25.734375 31.09375 25.734375 31.1875 L 25.734375 31.425781 C 25.734375 31.507812 25.707031 31.554688 25.667969 31.574219 C 25.621094 31.59375 25.574219 31.601562 25.511719 31.601562 C 25.449219 31.601562 25.402344 31.59375 25.371094 31.566406 C 25.34375 31.539062 25.324219 31.492188 25.316406 31.425781 C 25.316406 31.40625 25.316406 31.347656 25.316406 31.253906 C 25.316406 31.152344 25.316406 31.035156 25.316406 30.886719 C 25.316406 30.742188 25.316406 30.574219 25.316406 30.394531 C 25.316406 30.210938 25.316406 30.027344 25.316406 29.839844 C 25.316406 29.648438 25.316406 29.464844 25.316406 29.28125 C 25.316406 29.101562 25.316406 28.933594 25.316406 28.789062 C 25.316406 28.640625 25.316406 28.515625 25.316406 28.414062 C 25.316406 28.3125 25.316406 28.25 25.316406 28.234375 C 25.316406 28.152344 25.335938 28.105469 25.390625 28.085938 C 25.449219 28.0625 25.484375 28.042969 25.539062 28.042969 Z M 25.707031 28.492188 C 25.707031 28.671875 25.707031 28.847656 25.714844 29.019531 C 25.714844 29.167969 25.714844 29.3125 25.714844 29.476562 C 25.714844 29.628906 25.714844 29.769531 25.714844 29.867188 C 25.90625 29.847656 26.0625 29.777344 26.191406 29.640625 C 26.320312 29.503906 26.402344 29.320312 26.433594 29.085938 C 26.441406 28.964844 26.433594 28.867188 26.386719 28.785156 C 26.351562 28.703125 26.292969 28.636719 26.21875 28.585938 C 26.152344 28.539062 26.070312 28.503906 25.988281 28.484375 C 25.894531 28.464844 25.8125 28.457031 25.722656 28.464844 C 25.714844 28.457031 25.707031 28.472656 25.707031 28.492188 Z M 25.707031 28.492188 "/>
<path style=" stroke:none;fill-rule:nonzero;fill:rgb(0%,0%,0%);fill-opacity:1;" d="M 27.253906 31.414062 C 27.253906 31.40625 27.261719 31.351562 27.273438 31.261719 C 27.28125 31.167969 27.300781 31.0625 27.328125 30.914062 C 27.347656 30.777344 27.375 30.621094 27.402344 30.441406 C 27.429688 30.265625 27.457031 30.085938 27.496094 29.890625 C 27.53125 29.710938 27.5625 29.519531 27.585938 29.335938 C 27.613281 29.15625 27.640625 28.980469 27.667969 28.835938 C 27.695312 28.660156 27.722656 28.523438 27.742188 28.414062 C 27.761719 28.304688 27.769531 28.234375 27.777344 28.207031 C 27.785156 28.125 27.824219 28.066406 27.886719 28.039062 C 27.953125 28.011719 28.007812 28.003906 28.0625 28.011719 C 28.117188 28.011719 28.164062 28.03125 28.21875 28.046875 C 28.273438 28.066406 28.300781 28.113281 28.320312 28.175781 C 28.328125 28.203125 28.347656 28.277344 28.386719 28.414062 C 28.421875 28.542969 28.457031 28.707031 28.503906 28.90625 C 28.550781 29.109375 28.605469 29.320312 28.660156 29.554688 C 28.714844 29.796875 28.769531 30.023438 28.816406 30.242188 C 28.863281 30.464844 28.917969 30.671875 28.957031 30.863281 C 28.996094 31.058594 29.023438 31.203125 29.039062 31.3125 C 29.039062 31.367188 29.03125 31.410156 29.003906 31.4375 C 28.976562 31.472656 28.949219 31.492188 28.921875 31.511719 C 28.921875 31.511719 28.914062 31.511719 28.902344 31.511719 C 28.894531 31.511719 28.894531 31.511719 28.882812 31.511719 C 28.863281 31.519531 28.835938 31.519531 28.808594 31.519531 C 28.78125 31.519531 28.753906 31.511719 28.726562 31.492188 C 28.699219 31.484375 28.671875 31.457031 28.652344 31.425781 C 28.632812 31.402344 28.617188 31.355469 28.605469 31.308594 C 28.597656 31.253906 28.578125 31.179688 28.570312 31.097656 C 28.5625 31.019531 28.542969 30.933594 28.523438 30.859375 C 28.503906 30.769531 28.488281 30.6875 28.46875 30.59375 C 28.449219 30.59375 28.417969 30.59375 28.390625 30.585938 C 28.363281 30.585938 28.324219 30.585938 28.289062 30.585938 C 28.253906 30.585938 28.207031 30.585938 28.160156 30.585938 C 28.09375 30.585938 28.03125 30.585938 27.964844 30.59375 C 27.898438 30.59375 27.835938 30.601562 27.769531 30.621094 C 27.75 30.703125 27.742188 30.777344 27.722656 30.867188 C 27.714844 30.949219 27.695312 31.035156 27.6875 31.113281 C 27.679688 31.195312 27.667969 31.261719 27.667969 31.324219 C 27.660156 31.390625 27.660156 31.429688 27.648438 31.460938 C 27.640625 31.515625 27.621094 31.554688 27.582031 31.582031 C 27.550781 31.609375 27.503906 31.617188 27.417969 31.617188 C 27.34375 31.617188 27.296875 31.597656 27.269531 31.5625 C 27.261719 31.523438 27.253906 31.476562 27.253906 31.414062 Z M 27.867188 30.261719 C 27.886719 30.261719 27.902344 30.269531 27.921875 30.269531 C 27.941406 30.269531 27.957031 30.277344 27.988281 30.277344 C 28.019531 30.277344 28.042969 30.277344 28.082031 30.277344 C 28.109375 30.277344 28.15625 30.277344 28.210938 30.277344 C 28.265625 30.277344 28.3125 30.277344 28.351562 30.269531 C 28.34375 30.152344 28.324219 30.015625 28.304688 29.855469 C 28.285156 29.703125 28.25 29.53125 28.222656 29.34375 C 28.203125 29.242188 28.1875 29.136719 28.167969 29.042969 C 28.148438 28.941406 28.140625 28.871094 28.132812 28.804688 C 28.132812 28.785156 28.113281 28.769531 28.097656 28.769531 C 28.082031 28.769531 28.070312 28.777344 28.0625 28.804688 C 28.027344 29.023438 27.988281 29.222656 27.960938 29.417969 C 27.953125 29.5 27.933594 29.582031 27.925781 29.664062 C 27.917969 29.746094 27.898438 29.820312 27.890625 29.902344 C 27.882812 29.984375 27.871094 30.050781 27.863281 30.105469 C 27.855469 30.167969 27.84375 30.210938 27.84375 30.25 Z M 27.867188 30.261719 "/>
<path style=" stroke:none;fill-rule:nonzero;fill:rgb(0%,0%,0%);fill-opacity:1;" d="M 30.125 30.710938 C 30.132812 30.5625 30.152344 30.398438 30.179688 30.226562 C 30.195312 30.054688 30.222656 29.878906 30.25 29.699219 C 30.277344 29.519531 30.304688 29.351562 30.332031 29.179688 C 30.359375 29.003906 30.378906 28.851562 30.40625 28.710938 C 30.425781 28.574219 30.441406 28.457031 30.460938 28.355469 C 30.480469 28.257812 30.488281 28.191406 30.488281 28.15625 C 30.488281 28.082031 30.515625 28.035156 30.5625 28.027344 C 30.609375 28.019531 30.65625 28.019531 30.703125 28.019531 C 30.757812 28.019531 30.804688 28.027344 30.84375 28.054688 C 30.878906 28.082031 30.898438 28.148438 30.898438 28.25 C 30.898438 28.28125 30.890625 28.347656 30.871094 28.449219 C 30.863281 28.550781 30.84375 28.675781 30.816406 28.816406 C 30.796875 28.960938 30.769531 29.117188 30.742188 29.296875 C 30.714844 29.472656 30.6875 29.652344 30.648438 29.828125 C 30.621094 30.007812 30.582031 30.179688 30.554688 30.355469 C 30.527344 30.527344 30.5 30.683594 30.472656 30.828125 C 30.445312 30.976562 30.425781 31.09375 30.40625 31.195312 C 30.386719 31.296875 30.378906 31.363281 30.371094 31.390625 C 30.351562 31.488281 30.316406 31.542969 30.269531 31.5625 C 30.222656 31.582031 30.164062 31.589844 30.078125 31.589844 C 30.050781 31.589844 30.023438 31.589844 29.996094 31.589844 C 29.96875 31.589844 29.941406 31.582031 29.921875 31.5625 C 29.902344 31.542969 29.875 31.527344 29.855469 31.488281 C 29.835938 31.453125 29.820312 31.414062 29.800781 31.351562 C 29.792969 31.316406 29.773438 31.242188 29.746094 31.128906 C 29.71875 31.023438 29.691406 30.890625 29.652344 30.75 C 29.613281 30.605469 29.578125 30.4375 29.542969 30.253906 C 29.507812 30.074219 29.460938 29.886719 29.421875 29.707031 C 29.375 29.527344 29.339844 29.339844 29.304688 29.167969 C 29.269531 28.992188 29.230469 28.828125 29.203125 28.691406 C 29.175781 28.558594 29.148438 28.4375 29.136719 28.335938 C 29.117188 28.246094 29.109375 28.183594 29.109375 28.164062 C 29.109375 28.097656 29.117188 28.0625 29.144531 28.042969 C 29.171875 28.023438 29.210938 28.015625 29.253906 28.015625 C 29.296875 28.015625 29.332031 28.023438 29.371094 28.042969 C 29.40625 28.0625 29.453125 28.097656 29.492188 28.164062 C 29.5 28.183594 29.519531 28.238281 29.539062 28.316406 C 29.558594 28.398438 29.585938 28.5 29.613281 28.617188 C 29.640625 28.738281 29.667969 28.875 29.707031 29.03125 C 29.742188 29.179688 29.773438 29.332031 29.800781 29.488281 C 29.875 29.84375 29.957031 30.246094 30.042969 30.695312 C 30.0625 30.703125 30.070312 30.714844 30.078125 30.714844 C 30.097656 30.730469 30.109375 30.722656 30.125 30.710938 Z M 30.125 30.710938 "/>
<path style=" stroke:none;fill-rule:nonzero;fill:rgb(0%,0%,0%);fill-opacity:1;" d="M 31.535156 28.070312 C 31.664062 28.0625 31.804688 28.050781 31.964844 28.042969 C 32.132812 28.035156 32.28125 28.023438 32.410156 28.023438 C 32.558594 28.023438 32.667969 28.03125 32.734375 28.050781 C 32.808594 28.070312 32.851562 28.097656 32.871094 28.132812 C 32.890625 28.167969 32.890625 28.199219 32.878906 28.226562 C 32.871094 28.253906 32.859375 28.289062 32.832031 28.324219 C 32.808594 28.359375 32.761719 28.398438 32.667969 28.40625 C 32.621094 28.414062 32.546875 28.425781 32.457031 28.433594 C 32.363281 28.441406 32.273438 28.441406 32.179688 28.453125 C 32.070312 28.460938 31.949219 28.460938 31.832031 28.472656 L 31.839844 29.632812 C 32.039062 29.632812 32.207031 29.632812 32.34375 29.632812 C 32.484375 29.632812 32.566406 29.640625 32.59375 29.640625 C 32.613281 29.648438 32.628906 29.660156 32.660156 29.667969 C 32.691406 29.675781 32.714844 29.6875 32.734375 29.703125 C 32.753906 29.722656 32.769531 29.738281 32.789062 29.769531 C 32.796875 29.796875 32.808594 29.824219 32.808594 29.867188 C 32.808594 29.902344 32.789062 29.933594 32.773438 29.960938 C 32.757812 29.988281 32.726562 30.007812 32.699219 30.015625 C 32.671875 30.023438 32.644531 30.042969 32.617188 30.042969 C 32.589844 30.050781 32.582031 30.050781 32.570312 30.050781 L 32.21875 30.050781 C 32.125 30.050781 32.050781 30.050781 31.976562 30.058594 C 31.90625 30.066406 31.871094 30.066406 31.871094 30.078125 L 31.871094 30.652344 C 31.871094 30.816406 31.871094 31.007812 31.878906 31.21875 C 31.941406 31.21875 32.015625 31.210938 32.097656 31.210938 C 32.179688 31.210938 32.273438 31.203125 32.367188 31.203125 C 32.460938 31.203125 32.542969 31.203125 32.636719 31.203125 C 32.730469 31.203125 32.792969 31.203125 32.84375 31.210938 C 32.910156 31.210938 32.945312 31.238281 32.972656 31.277344 C 33 31.3125 33.007812 31.359375 33 31.421875 C 32.992188 31.476562 32.972656 31.515625 32.925781 31.53125 C 32.890625 31.550781 32.824219 31.558594 32.746094 31.566406 C 32.699219 31.566406 32.625 31.574219 32.523438 31.574219 C 32.421875 31.574219 32.3125 31.574219 32.199219 31.582031 C 32.089844 31.582031 31.976562 31.582031 31.886719 31.589844 C 31.792969 31.597656 31.730469 31.589844 31.691406 31.589844 C 31.636719 31.589844 31.589844 31.582031 31.5625 31.554688 C 31.527344 31.535156 31.507812 31.480469 31.496094 31.414062 C 31.496094 31.398438 31.496094 31.335938 31.488281 31.242188 C 31.488281 31.140625 31.480469 31.023438 31.480469 30.875 C 31.480469 30.730469 31.472656 30.5625 31.460938 30.382812 C 31.453125 30.199219 31.453125 30.015625 31.441406 29.828125 C 31.441406 29.632812 31.433594 29.453125 31.421875 29.269531 C 31.414062 29.089844 31.414062 28.921875 31.414062 28.777344 C 31.414062 28.628906 31.414062 28.503906 31.40625 28.410156 C 31.398438 28.316406 31.40625 28.257812 31.40625 28.238281 C 31.40625 28.171875 31.425781 28.128906 31.453125 28.109375 C 31.476562 28.089844 31.507812 28.078125 31.535156 28.070312 Z M 31.535156 28.070312 "/>
<path style=" stroke:none;fill-rule:nonzero;fill:rgb(0%,0%,0%);fill-opacity:1;" d="M 33.898438 31.257812 C 34.019531 31.257812 34.128906 31.257812 34.230469 31.265625 C 34.324219 31.265625 34.40625 31.273438 34.488281 31.273438 C 34.566406 31.273438 34.632812 31.273438 34.679688 31.273438 C 34.746094 31.273438 34.789062 31.292969 34.808594 31.328125 C 34.828125 31.363281 34.828125 31.394531 34.828125 31.425781 C 34.828125 31.460938 34.820312 31.5 34.800781 31.535156 C 34.78125 31.570312 34.726562 31.589844 34.625 31.601562 L 33.605469 31.59375 C 33.558594 31.59375 33.523438 31.585938 33.496094 31.558594 C 33.46875 31.53125 33.460938 31.484375 33.460938 31.40625 C 33.460938 31.277344 33.460938 31.109375 33.460938 30.902344 C 33.460938 30.695312 33.460938 30.480469 33.460938 30.253906 C 33.460938 30.027344 33.460938 29.800781 33.46875 29.558594 C 33.46875 29.320312 33.46875 29.113281 33.476562 28.910156 C 33.476562 28.71875 33.476562 28.558594 33.484375 28.417969 C 33.484375 28.28125 33.484375 28.210938 33.484375 28.179688 C 33.484375 28.097656 33.511719 28.050781 33.566406 28.03125 C 33.621094 28.011719 33.667969 28.003906 33.710938 28.003906 C 33.730469 28.003906 33.757812 28.003906 33.785156 28.011719 C 33.8125 28.019531 33.832031 28.03125 33.859375 28.039062 C 33.878906 28.058594 33.894531 28.074219 33.914062 28.113281 C 33.933594 28.148438 33.933594 28.195312 33.933594 28.242188 C 33.933594 28.285156 33.925781 28.386719 33.925781 28.542969 C 33.925781 28.695312 33.917969 28.890625 33.917969 29.097656 C 33.917969 29.316406 33.910156 29.535156 33.910156 29.785156 C 33.910156 30.023438 33.902344 30.25 33.902344 30.453125 C 33.902344 30.652344 33.894531 30.832031 33.894531 30.972656 C 33.894531 31.109375 33.894531 31.191406 33.894531 31.210938 C 33.871094 31.25 33.878906 31.257812 33.898438 31.257812 Z M 33.898438 31.257812 "/>
<path style=" stroke:none;fill-rule:nonzero;fill:rgb(0%,0%,0%);fill-opacity:1;" d="M 13.652344 20.9375 C 13.847656 20.644531 13.976562 20.363281 14.039062 20.078125 C 14.085938 19.910156 14.105469 19.777344 14.105469 19.675781 C 14.105469 19.601562 14.097656 19.546875 14.070312 19.511719 C 13.847656 19.53125 13.625 19.75 13.425781 20.15625 C 13.214844 20.570312 13.046875 21.035156 12.925781 21.554688 C 13.21875 21.429688 13.46875 21.230469 13.652344 20.9375 Z M 13.652344 20.9375 "/>
<path style=" stroke:none;fill-rule:nonzero;fill:rgb(0%,0%,0%);fill-opacity:1;" d="M 20.515625 23.382812 C 20.679688 23.382812 20.808594 23.328125 20.898438 23.21875 C 20.992188 23.109375 21.046875 22.976562 21.054688 22.835938 C 20.738281 22.972656 20.328125 23.042969 19.820312 23.082031 C 19.921875 23.277344 20.152344 23.382812 20.515625 23.382812 Z M 20.515625 23.382812 "/>
<path style=" stroke:none;fill-rule:nonzero;fill:rgb(0%,0%,0%);fill-opacity:1;" d="M 33.097656 25.6875 C 33.320312 25.203125 33.476562 21.90625 33.476562 21.90625 C 33.695312 15.199219 31.046875 14.3125 31.046875 14.3125 C 26.855469 11.339844 18.707031 12.707031 18.707031 12.707031 C 11.855469 13.585938 9.738281 16.089844 9.113281 17.257812 C 8.929688 17.605469 8.726562 17.933594 8.511719 18.261719 C 7.417969 19.921875 7.355469 24.492188 7.355469 24.492188 C 7.355469 24.910156 7.460938 25.285156 7.636719 25.613281 C 8.125 26.535156 9.121094 27.09375 10.167969 27.121094 L 17.089844 27.261719 C 17.039062 27.890625 17.246094 28.410156 17.523438 28.824219 C 18.066406 29.625 19.003906 30.066406 19.980469 30.074219 C 22.585938 30.101562 22.769531 27.160156 22.769531 27.160156 L 31.804688 27.207031 C 32.21875 27.207031 32.605469 27.027344 32.859375 26.707031 L 34.757812 26.566406 L 34.839844 28.90625 L 35.136719 28.90625 L 35.136719 25.707031 L 33.089844 25.707031 L 33.089844 25.6875 Z M 18.246094 20.78125 C 18.105469 21.777344 17.925781 22.519531 17.675781 23.019531 C 17.371094 23.632812 16.929688 23.933594 16.328125 23.933594 C 15.84375 23.933594 15.519531 23.753906 15.359375 23.386719 C 15.3125 23.269531 15.28125 23.140625 15.261719 22.984375 C 15.050781 23.253906 14.808594 23.453125 14.539062 23.605469 C 14.144531 23.828125 13.730469 23.925781 13.289062 23.925781 C 12.808594 23.925781 12.441406 23.835938 12.183594 23.644531 C 11.980469 23.5 11.832031 23.316406 11.726562 23.097656 C 11.585938 23.34375 11.421875 23.546875 11.21875 23.691406 C 10.996094 23.859375 10.734375 23.9375 10.410156 23.9375 C 9.914062 23.9375 9.589844 23.765625 9.441406 23.417969 C 9.359375 23.21875 9.320312 22.953125 9.320312 22.644531 C 9.320312 22.414062 9.355469 22.066406 9.421875 21.582031 C 9.496094 21.105469 9.644531 20.367188 9.882812 19.363281 L 10.109375 18.386719 C 10.164062 18.160156 10.257812 17.730469 10.394531 17.078125 L 10.441406 16.933594 C 10.460938 16.839844 10.496094 16.75 10.542969 16.667969 C 10.589844 16.582031 10.664062 16.511719 10.765625 16.457031 C 10.867188 16.40625 11.019531 16.378906 11.234375 16.378906 C 11.417969 16.378906 11.550781 16.421875 11.632812 16.503906 C 11.714844 16.585938 11.753906 16.707031 11.753906 16.859375 C 11.753906 16.988281 11.734375 17.125 11.699219 17.273438 C 11.617188 17.574219 11.46875 18.25 11.238281 19.300781 L 11.183594 19.554688 C 11.0625 20.175781 10.953125 20.71875 10.855469 21.179688 C 10.679688 21.996094 10.585938 22.515625 10.585938 22.734375 C 10.585938 22.902344 10.632812 22.980469 10.714844 22.980469 C 10.871094 22.980469 11.015625 22.910156 11.15625 22.773438 C 11.285156 22.65625 11.40625 22.453125 11.515625 22.1875 C 11.515625 22.167969 11.515625 22.140625 11.515625 22.121094 C 11.515625 22.039062 11.523438 21.882812 11.542969 21.65625 C 11.5625 21.425781 11.636719 21.125 11.753906 20.753906 C 11.878906 20.378906 12.027344 20.03125 12.210938 19.71875 C 12.394531 19.40625 12.582031 19.152344 12.78125 18.957031 C 12.984375 18.765625 13.179688 18.664062 13.355469 18.664062 C 13.675781 18.664062 13.933594 18.699219 14.136719 18.785156 C 14.332031 18.859375 14.519531 19.023438 14.707031 19.277344 C 14.847656 19.550781 14.910156 19.835938 14.910156 20.140625 C 14.910156 20.292969 14.875 20.53125 14.800781 20.839844 C 14.726562 21.160156 14.503906 21.46875 14.148438 21.789062 C 13.851562 22.042969 13.503906 22.171875 13.089844 22.171875 C 12.996094 22.171875 12.894531 22.164062 12.804688 22.152344 C 12.785156 22.273438 12.777344 22.378906 12.769531 22.480469 C 12.769531 22.761719 12.898438 22.972656 13.15625 23.101562 C 13.304688 23.175781 13.460938 23.210938 13.625 23.210938 C 13.765625 23.210938 13.957031 23.175781 14.21875 23.101562 C 14.464844 23.027344 14.75 22.789062 15.054688 22.398438 C 15.128906 22.300781 15.203125 22.191406 15.265625 22.070312 C 15.285156 21.917969 15.300781 21.742188 15.328125 21.53125 C 15.394531 21.058594 15.558594 20.34375 15.808594 19.386719 C 15.828125 19.320312 15.890625 19.046875 16.003906 18.574219 L 15.558594 18.574219 C 15.492188 18.574219 15.4375 18.554688 15.410156 18.507812 C 15.375 18.472656 15.363281 18.425781 15.363281 18.367188 C 15.363281 18.175781 15.410156 18.039062 15.492188 17.96875 C 15.546875 17.921875 15.601562 17.902344 15.667969 17.902344 L 16.167969 17.902344 C 16.238281 17.554688 16.304688 17.289062 16.339844 17.105469 L 16.386719 16.960938 C 16.40625 16.867188 16.441406 16.777344 16.488281 16.695312 C 16.535156 16.613281 16.609375 16.539062 16.710938 16.484375 C 16.8125 16.429688 16.96875 16.40625 17.167969 16.40625 C 17.511719 16.40625 17.675781 16.570312 17.675781 16.886719 C 17.675781 17.015625 17.65625 17.152344 17.621094 17.300781 C 17.585938 17.425781 17.539062 17.628906 17.472656 17.914062 L 17.917969 17.914062 C 17.917969 17.859375 17.925781 17.792969 17.925781 17.730469 C 17.941406 17.429688 17.976562 17.15625 18.023438 16.910156 C 18.070312 16.71875 18.152344 16.589844 18.273438 16.507812 C 18.394531 16.433594 18.53125 16.390625 18.671875 16.390625 C 18.746094 16.390625 18.816406 16.40625 18.898438 16.453125 C 18.980469 16.5 19.054688 16.5625 19.101562 16.648438 C 19.128906 16.695312 19.136719 16.746094 19.136719 16.8125 C 19.136719 16.867188 19.128906 16.921875 19.109375 16.980469 C 19.027344 17.1875 18.933594 17.445312 18.832031 17.738281 C 18.800781 17.847656 18.761719 17.949219 18.734375 18.039062 C 18.742188 18.058594 18.742188 18.074219 18.742188 18.105469 C 18.742188 18.304688 18.695312 18.445312 18.613281 18.507812 C 18.605469 18.515625 18.585938 18.527344 18.578125 18.535156 C 18.558594 18.5625 18.542969 18.589844 18.523438 18.605469 C 18.488281 18.632812 18.449219 18.652344 18.414062 18.660156 C 18.378906 18.667969 18.347656 18.679688 18.332031 18.679688 C 18.203125 18.679688 18.089844 18.660156 18.007812 18.632812 C 17.980469 18.625 17.953125 18.605469 17.9375 18.582031 L 17.316406 18.582031 C 17.25 18.882812 17.195312 19.128906 17.148438 19.328125 L 17.09375 19.582031 C 16.976562 20.203125 16.875 20.746094 16.773438 21.207031 C 16.597656 22.011719 16.515625 22.53125 16.515625 22.75 C 16.515625 22.925781 16.5625 23.003906 16.644531 23.003906 C 16.800781 23.003906 16.941406 22.933594 17.085938 22.796875 C 17.382812 22.503906 17.640625 21.800781 17.863281 20.695312 C 17.871094 20.640625 17.898438 20.601562 17.929688 20.574219 C 17.953125 20.546875 18.007812 20.539062 18.066406 20.539062 C 18.140625 20.539062 18.1875 20.558594 18.222656 20.605469 C 18.242188 20.640625 18.257812 20.679688 18.257812 20.746094 Z M 19.765625 28.992188 C 18.957031 28.992188 18.292969 28.335938 18.292969 27.53125 C 18.292969 26.722656 18.953125 26.070312 19.765625 26.070312 C 20.578125 26.070312 21.242188 26.722656 21.242188 27.53125 C 21.242188 28.34375 20.574219 28.992188 19.765625 28.992188 Z M 23.402344 21.128906 C 23.335938 21.40625 23.207031 21.652344 23.019531 21.859375 C 22.824219 22.066406 22.613281 22.234375 22.363281 22.335938 L 22.371094 22.480469 L 22.371094 22.554688 C 22.371094 22.800781 22.292969 23.019531 22.132812 23.230469 C 21.976562 23.4375 21.773438 23.609375 21.53125 23.742188 C 21.292969 23.871094 21.046875 23.933594 20.804688 23.933594 C 19.96875 23.933594 19.425781 23.667969 19.175781 23.148438 C 19.15625 23.09375 19.148438 23.027344 19.148438 22.972656 C 19.148438 22.875 19.195312 22.78125 19.277344 22.691406 C 19.359375 22.601562 19.582031 22.546875 19.929688 22.527344 L 19.949219 22.527344 C 20.347656 22.5 20.695312 22.433594 20.992188 22.335938 C 20.898438 22.066406 20.734375 21.820312 20.488281 21.585938 C 20.15625 21.238281 19.933594 20.957031 19.824219 20.757812 C 19.714844 20.554688 19.660156 20.308594 19.660156 20.035156 C 19.660156 19.769531 19.730469 19.53125 19.878906 19.320312 C 20.027344 19.113281 20.222656 18.945312 20.472656 18.828125 C 20.710938 18.707031 20.976562 18.644531 21.273438 18.644531 C 21.65625 18.644531 21.980469 18.726562 22.242188 18.886719 C 22.507812 19.050781 22.671875 19.222656 22.738281 19.433594 C 22.757812 19.488281 22.765625 19.539062 22.765625 19.597656 C 22.765625 19.746094 22.699219 19.871094 22.5625 19.980469 C 22.441406 20.027344 22.351562 20.046875 22.261719 20.046875 C 22.078125 20.046875 21.917969 19.898438 21.800781 19.617188 C 21.746094 19.5 21.691406 19.390625 21.617188 19.296875 C 21.542969 19.207031 21.4375 19.160156 21.289062 19.160156 C 21.09375 19.160156 20.957031 19.25 20.902344 19.433594 C 20.875 19.507812 20.867188 19.578125 20.867188 19.660156 C 20.867188 19.789062 20.902344 19.960938 20.988281 20.171875 C 21.070312 20.382812 21.246094 20.628906 21.53125 20.902344 C 21.910156 21.214844 22.160156 21.523438 22.28125 21.835938 C 22.703125 21.710938 22.988281 21.398438 23.117188 20.894531 L 23.171875 20.65625 C 23.1875 20.601562 23.203125 20.5625 23.234375 20.535156 C 23.261719 20.515625 23.300781 20.5 23.34375 20.5 L 23.378906 20.5 C 23.425781 20.5 23.460938 20.519531 23.480469 20.566406 C 23.5 20.59375 23.5 20.632812 23.5 20.667969 C 23.484375 20.738281 23.457031 20.890625 23.402344 21.128906 Z M 28.476562 25.433594 C 28.476562 25.773438 28.203125 26.035156 27.871094 26.035156 L 24.324219 26.035156 C 23.984375 26.035156 23.71875 25.761719 23.71875 25.433594 L 23.71875 15.226562 C 23.71875 14.886719 23.996094 14.625 24.324219 14.625 L 27.871094 14.625 C 28.214844 14.625 28.476562 14.898438 28.476562 15.226562 Z M 28.476562 25.433594 "/>
<path style=" stroke:none;fill-rule:nonzero;fill:rgb(0%,0%,0%);fill-opacity:1;" d="M 20.367188 27.488281 C 20.367188 27.816406 20.097656 28.082031 19.765625 28.082031 C 19.4375 28.082031 19.167969 27.816406 19.167969 27.488281 C 19.167969 27.160156 19.4375 26.894531 19.765625 26.894531 C 20.097656 26.894531 20.367188 27.160156 20.367188 27.488281 Z M 20.367188 27.488281 "/>
<path style=" stroke:none;fill-rule:nonzero;fill:rgb(0%,0%,0%);fill-opacity:1;" d="M 24.691406 15.511719 L 27.511719 15.511719 L 27.511719 18.574219 L 24.691406 18.574219 Z M 24.691406 15.511719 "/>
</g>
</svg>
