<?xml version="1.0" encoding="utf-8"?>
<!-- Generator: Adobe Illustrator 25.2.3, SVG Export Plug-In . SVG Version: 6.00 Build 0)  -->
<svg version="1.1" id="Layer_1" xmlns="http://www.w3.org/2000/svg" xmlns:xlink="http://www.w3.org/1999/xlink" x="0px" y="0px"
	 viewBox="0 0 1080 1296" style="enable-background:new 0 0 1080 1296;" xml:space="preserve">
<polygon points="218.2,720.7 228.2,751.3 260.1,751.3 234.1,770 244,800.5 218.2,781.6 192.4,800.5 202.1,770 176.3,751.3 
	208.3,751.3 "/>
<polygon points="305.8,720.7 315.5,751.3 347.7,751.3 321.7,770 331.6,800.5 305.8,781.6 279.8,800.5 289.7,770 263.9,751.3 
	295.9,751.3 "/>
<polygon points="393.4,720.7 403.1,751.3 435.1,751.3 409.3,770 419.2,800.5 393.4,781.6 367.4,800.5 377.3,770 351.5,751.3 
	383.5,751.3 "/>
<path d="M221.5,844.1c-0.5,21.5-0.7,41.2-1.2,59c-0.2,7.3-0.2,14.9-0.5,22c-0.2,7.3-0.5,14-0.5,19.9c-0.2,5.9-0.2,10.9-0.5,14.9
	c-0.2,4-0.2,6.4-0.2,7.3c-0.2,2.8-1.2,5-2.4,5.9c-1.4,1.2-3.6,1.7-6.2,1.7c-2.6,0-4.5-0.9-5.4-2.6c-0.9-1.9-1.4-3.8-1.4-6.2
	c0-1.4,0-5.2,0-11.1c0-6.2,0.2-13.3,0.2-21.8c0.2-8.5,0.2-17.5,0.2-27.5c0-9.7,0.2-18.9,0.2-27.5c0.2-8.5,0.2-15.9,0.2-22.3
	c0-6.2,0-10.2,0-11.8h-18.5c-1.2-0.2-1.9-0.5-2.6-0.7c-0.7-0.5-1.2-1.2-1.7-2.1c-0.5-0.9-0.7-2.4-0.7-4c0-3.6,0.9-5.9,3.1-6.6
	c2.1-0.9,4-1.4,6.2-1.4c0.7,0,2.4,0,5,0c2.4,0,5.4,0.2,8.8,0.2c3.3,0,6.9,0.2,10.4,0.2c3.6,0,7.1,0.2,10.4,0.2s6.2,0.2,8.5,0.2
	s4,0,4.7,0c2.1,0.2,4,0.7,6.2,1.7c2.1,0.9,3.1,3.3,3.1,6.9c-0.2,2.8-1.4,4.5-3.6,5c-2.1,0.5-4,0.7-5.9,0.7h-16.1V844.1z"/>
<path d="M313.7,898.6l-1.2-61.3c-0.2-1.7-0.2-3.1,0.5-4.5c0.2-1.2,0.9-2.1,1.9-3.1c0.9-0.9,2.6-1.4,4.5-1.4s3.3,0.2,4.5,0.7
	c0.9,0.5,1.7,1.2,2.1,2.1c0.5,0.9,0.7,1.9,0.7,3.3c0,1.4,0,2.6,0,4c0,0.7,0,3.3,0.2,7.1c0.2,4,0.2,8.8,0.5,14.4
	c0.2,5.7,0.2,12.3,0.7,19.4c0.2,7.3,0.5,14.7,0.7,22c0.2,7.6,0.5,14.9,0.5,22c0.2,7.3,0.2,13.7,0.5,19.4s0.2,10.7,0.2,14.4
	c0,3.8,0,6.2,0,7.1c-0.2,2.6-0.9,4.7-1.9,6.2c-0.9,1.4-2.8,2.4-5.4,2.4c-2.8,0.2-4.7-0.7-5.9-2.4c-1.2-1.9-1.7-4.3-1.7-7.3
	c0-0.7,0-2.1,0-4c0-1.9,0-4,0-6.6c0-2.4-0.2-5.2-0.2-8.1c0-2.8,0-5.7,0-8.8c-0.2-6.6-0.2-14.2-0.2-22.3c-2.1,0-4.7,0-8.1,0
	c-3.3,0-6.4,0-9.7,0c-3.3,0-6.6,0.2-9.7,0.5c-3.1,0.2-5.9,0.5-8.1,0.9c0,3.8,0,7.8,0,12.3c0,4.5,0.2,9.2,0.2,13.7
	c0,4.7,0.2,9.2,0.2,13.5s0,8.1,0,11.4c-0.2,2.6-0.5,4.7-0.9,6.2c-0.5,1.4-2.1,2.1-5,2.1s-5-0.5-6.4-1.4c-1.4-0.9-2.1-3.3-2.4-6.9
	c-0.2-0.9-0.2-3.6-0.5-7.3c-0.2-4-0.2-9-0.5-14.7c-0.2-5.9-0.2-12.3-0.5-19.7c-0.2-7.3-0.5-14.7-0.5-22.3c-0.2-7.6-0.2-14.9-0.5-22
	c-0.2-7.3-0.2-13.7-0.2-19.9c0-5.9,0-11.1,0-15.2c0-4,0-6.6,0-7.8c0-1.9,0.2-3.3,0.7-4.5c0.5-0.9,0.9-1.9,1.7-2.4
	c0.7-0.5,1.4-0.7,2.1-0.7c0.7,0,1.4,0,2.1,0s1.4,0,2.4,0.2c0.9,0.2,1.9,0.5,2.8,1.2c0.9,0.7,1.7,1.9,2.4,3.3
	c0.7,1.7,0.9,3.8,1.2,6.9c0.2,2.8,0.2,5.7,0.5,8.8s0.2,6.9,0.5,11.4c0.2,4.5,0.2,9.7,0.5,15.6c0.2,5.9,0.2,13.3,0.7,21.5
	L313.7,898.6z"/>
<path d="M357.5,831.1c4.5-0.5,9.7-0.7,15.6-1.2c5.9-0.5,11.1-0.7,16.1-0.7c5.4,0,9.2,0.2,11.6,0.9c2.8,0.7,4.5,1.9,5,3.3
	c0.5,1.4,0.7,2.6,0.5,3.8c-0.2,1.2-0.7,2.4-1.7,4c-0.7,1.7-2.8,2.8-5.9,3.6c-1.7,0.5-4.3,0.7-7.6,0.9c-3.3,0.2-6.6,0.5-9.9,0.7
	c-4,0.2-8.3,0.5-12.5,0.7l0.5,47.1c7.3,0,13.5,0,18.5,0c5,0,8.1,0.2,9,0.5c0.5,0.2,1.4,0.5,2.4,0.9c0.9,0.2,1.9,0.7,2.6,1.4
	c0.7,0.7,1.4,1.4,1.9,2.4c0.5,0.9,0.7,2.4,0.5,4c-0.2,1.4-0.7,2.8-1.4,3.8c-0.7,0.9-1.7,1.7-2.8,2.4c-1.2,0.7-1.9,0.9-2.8,1.2
	c-0.9,0.2-1.4,0.2-1.7,0.2h-12.8c-3.1,0-6.2,0-8.8,0.2c-2.6,0.2-4,0.5-4,0.7v23.4c0,6.6,0,14.4,0.2,23.2c2.1-0.2,4.7-0.2,8.1-0.5
	c3.1-0.2,6.2-0.2,9.5-0.2c3.3,0,6.4,0,9.5,0c3.1,0,5.7,0,7.8,0.2c2.1,0.2,3.8,0.9,4.7,2.4c0.9,1.4,1.2,3.6,0.9,5.7
	c-0.2,2.1-1.2,3.8-2.6,4.5c-1.4,0.7-3.6,1.2-6.4,1.7c-1.7,0.2-4.3,0.2-8.1,0.2s-7.6,0.2-11.8,0.2c-4,0-8.1,0.2-11.4,0.2
	c-3.3,0-5.9,0-6.9,0c-1.9,0-3.6-0.5-4.7-1.4c-1.2-0.9-1.9-2.8-2.4-5.7c0-0.7,0-3.3-0.2-7.3c-0.2-4-0.2-9-0.5-14.9
	c-0.2-5.9-0.2-12.5-0.5-20.1c-0.2-7.3-0.5-14.9-0.5-22.5c-0.2-7.6-0.2-15.2-0.5-22.5c-0.2-7.3-0.2-14-0.5-20.1
	c0-5.9-0.2-10.9-0.2-14.9c0-4,0-6.4,0-7.1c0.2-2.8,0.7-4.5,1.7-5.2C355.3,831.8,356.3,831.3,357.5,831.1z"/>
<path d="M557.3,936.9c0.5-5.4,0.9-11.6,1.7-18.5c0.7-6.6,1.7-13.7,2.4-20.8c0.9-7.1,1.9-14,2.6-21.1c0.9-6.9,1.7-13,2.6-18.7
	c0.7-5.7,1.4-10.2,2.1-14c0.5-3.8,0.9-6.2,0.9-7.1c0.5-4,2.4-6.2,5.2-6.2c2.8,0,4.5,0.7,5.2,2.4s1.2,3.8,1.2,6.2
	c0,0.7-0.2,2.8-0.5,6.4c-0.2,3.6-0.7,8.3-1.4,14c-0.5,5.7-1.2,12.1-1.9,19.2c-0.7,7.1-1.7,14.2-2.4,21.8c-0.7,7.3-1.7,14.7-2.4,21.8
	c-0.7,7.1-1.7,13.7-2.4,19.4c-0.7,5.9-1.4,10.7-1.9,14.7c-0.5,4-1.2,6.4-1.4,7.3c-1.2,3.8-2.4,6.4-3.8,7.8s-3.8,2.1-6.9,2.1
	c-3.6,0-6.2-0.9-7.6-2.8c-1.4-1.9-2.6-5-3.3-9.5c-0.2-1.7-0.7-5-1.7-10.2c-0.7-5.2-1.9-10.9-2.8-17.8c-1.2-6.6-2.1-13.7-3.3-21.1
	c-1.2-7.3-2.1-14.2-3.1-20.4c-0.9-6.2-1.9-13.3-3.3-21.3c-1.2-0.7-1.9-0.7-2.4,0c-0.7,5.4-1.7,11.6-2.6,18.2
	c-0.9,6.6-1.9,13.5-3.1,20.4c-0.9,6.9-2.1,13.5-3.1,20.1c-0.9,6.6-1.9,12.5-2.8,17.8c-0.9,5.2-1.7,9.7-2.4,13.3s-1.2,5.9-1.4,6.9
	c-0.7,2.8-1.7,4.5-2.6,5.4c-1.2,0.7-2.4,1.2-4,1.2h-0.7c-0.9,0-1.9,0-2.6,0c-0.7,0-1.4-0.5-2.1-0.9c-0.7-0.5-1.2-1.4-1.7-2.6
	s-0.9-2.8-1.4-5.2c-0.2-1.4-0.7-4.5-1.7-8.8c-0.7-4.3-1.9-9.7-3.1-15.9c-1.2-6.2-2.4-13-3.8-20.4c-1.4-7.3-2.8-14.9-4-22.5
	c-1.4-7.6-2.6-14.9-4-22c-1.4-7.1-2.4-13.5-3.6-19.2c-0.9-5.7-1.9-10.2-2.4-14c-0.7-3.6-0.9-5.7-0.9-6.4c0-1.7,0.2-2.8,0.7-3.8
	c0.5-0.9,0.9-1.7,1.7-1.9c0.7-0.5,1.4-0.7,2.4-0.7s1.7,0,2.4,0c1.4,0,2.8,0.7,4,1.9c1.4,1.2,2.4,4,3.3,8.8c0.2,1.4,0.7,4,1.2,7.3
	c0.5,3.3,1.2,7.1,1.9,11.4c0.7,4.3,1.7,9,2.4,13.7c0.9,5,1.9,9.9,2.8,14.9c2.1,11.6,4.5,24.2,7.1,37.9c0.7,0.7,1.7,0.7,2.4,0
	c0.7-4,1.7-9,2.6-14.7s1.9-11.6,3.1-17.8c0.9-6.2,2.1-12.3,3.1-18.7c0.9-6.2,1.9-12.1,2.8-17.5c0.9-5.4,1.7-9.9,2.1-14
	c0.5-4,0.9-6.9,1.2-8.5c0.7-2.6,1.7-4.3,3.3-4.7c1.4-0.5,2.8-0.7,4.5-0.7c0.5,0,1.2,0,1.9,0.2c0.7,0.2,1.4,0.5,2.4,1.4
	c0.7,0.7,1.4,1.9,2.1,3.3c0.7,1.4,1.4,3.3,1.9,5.9c0.5,2.1,1.2,5.9,2.1,11.6c0.9,5.7,2.1,12.1,3.3,19.4s2.6,14.7,3.8,22.7
	c1.4,7.8,2.6,15.2,3.6,21.5c1.2,6.6,2.4,14,3.8,22.5C556.1,937.6,556.8,937.6,557.3,936.9z"/>
<path d="M632.3,828.7c6.2,0.2,11.4,2.4,15.6,6.4c4.5,4.3,8.1,9.7,10.9,16.1c2.8,6.6,5,14,6.4,22c1.4,8.1,2.1,16.1,2.1,24.2
	c0,5.7-0.2,11.4-0.7,17.3s-1.2,11.8-2.1,17.5c-0.9,5.7-2.4,11.1-4,16.1c-1.7,5.2-3.8,9.5-6.4,13.5c-2.6,3.8-5.7,6.9-9,9.2
	c-3.6,2.4-7.6,3.3-12.3,3.3c-6.4,0-11.8-2.1-16.1-6.2c-4.3-4-7.6-9.5-9.9-15.9c-2.4-6.4-4.3-13.7-5.2-21.8
	c-0.9-8.1-1.4-15.9-1.4-23.7c0-8.3,0.5-17.3,1.2-26.5s2.4-17.8,4.5-25.3c2.4-7.8,5.4-14,9.7-19.2
	C619.8,831.1,625.5,828.7,632.3,828.7z M633.3,843.9c-2.6,0-5,0.7-7.3,2.4c-2.4,1.7-4.3,4.7-5.9,9.7c-1.7,4.7-3.1,11.4-4,19.9
	c-0.9,8.5-1.4,19.7-1.4,33.4c0,11.4,0.7,20.4,2.4,26.8c1.7,6.4,3.6,11.4,5.7,14.4c2.1,3.3,4.3,5.2,6.4,6.2c2.1,0.9,3.6,1.2,4.5,1.2
	c1.2,0,2.8-0.5,5-1.4c2.1-0.9,4.3-3.6,6.4-7.6c2.1-4,4-10.2,5.7-18.5c1.7-8.3,2.4-19.9,2.4-34.6c0-9.5-0.7-17.5-1.9-24.2
	c-1.2-6.6-2.8-11.8-4.7-16.1c-1.9-4-4-7.1-6.4-9C637.5,845,635.4,844.1,633.3,843.9z"/>
<path d="M696.3,829.9c5.7-0.2,11.4,0,17,0.7c5.4,0.7,10.4,2.6,14.4,5.2c4.3,2.6,7.6,6.4,9.9,11.4c2.4,5,3.6,11.6,3.6,19.7
	c-0.2,7.3-0.9,13.5-2.4,18.7c-1.4,5.2-3.3,9.7-5.7,13.3c-2.1,3.6-4.5,6.6-7.1,9c-2.4,2.4-4.7,4-6.6,5.4c2.1,5.4,4.5,10.9,7.1,16.1
	c2.4,5.4,4.7,10.4,6.9,15.4c2.1,4.7,4,9,5.7,12.5c1.7,3.6,2.6,6.2,3.1,7.8c0.7,2.8,0.9,4.7,0.7,5.7c-0.5,0.9-1.9,2.1-4,3.1
	c-4.7,2.1-8.8,0-11.6-6.2c-1.4-3.3-3.1-7.3-4.7-11.8c-1.7-4.5-3.8-9-5.9-13.7c-2.1-4.5-4.3-8.8-6.4-12.8c-2.1-4-4.3-7.1-6.2-9.5
	c-0.2,1.7-0.2,3.8-0.2,6.6c0,2.8,0,5.9,0,9.2c0,3.3,0,6.9,0,10.7s0,7.6,0,11.4v9.7c-0.2,3.1-0.9,5.2-2.4,5.7
	c-1.4,0.7-3.6,0.9-5.7,0.9c-2.4,0-4-0.5-5.2-1.4c-1.2-0.9-1.7-2.8-1.9-5.7c0-0.7,0-3.3,0-7.3c0-4,0-9,0-14.9c0-5.9,0-12.5,0-20.1
	c0-7.3,0-14.9,0-22.7s0-15.4,0-22.7c0-7.3,0-14.2,0-20.1s0-11.1,0-15.2c0-4,0-6.4,0-7.3c-0.2-3.1,0.7-5.2,2.6-6.2
	C692.5,830.4,694.4,829.9,696.3,829.9z M702.4,848.1c0,7.3,0,14.7,0.2,21.5c0,5.9,0,12.1,0,18.5c0,6.4,0,11.6,0,16.1
	c6.9-0.7,12.8-3.8,17.5-9.2c4.7-5.4,7.6-13,8.5-22.7c0.5-4.7,0-9-1.7-12.3c-1.4-3.3-3.3-6.2-5.9-8.1c-2.4-1.9-5.2-3.3-8.5-4.3
	s-6.4-1.2-9.5-0.7C702.7,846.7,702.4,847.2,702.4,848.1z"/>
<path d="M779.4,960.3c4.3,0,8.3,0,12.1,0.2c3.1,0.2,6.4,0.2,9.5,0.2s5.4,0,6.9,0c2.4,0.2,4,0.9,4.5,2.4c0.5,1.4,0.7,2.8,0.7,4
	c0,1.4-0.2,3.1-0.9,4.5c-0.7,1.4-2.8,2.4-6.2,2.4l-36.9-0.2c-1.9,0-3.1-0.5-4-1.4c-0.7-0.9-1.4-3.1-1.4-6.4c0-5.2,0-12.1,0-20.1
	c0-8.3,0-17,0-26.3c0-9.2,0.2-18.7,0.2-28.4c0-9.5,0.2-18.2,0.2-26.3c0-7.8,0.2-14.7,0.2-20.1c0-5.4,0-8.8,0-9.7
	c0.2-3.1,1.2-5.2,3.1-5.7c1.9-0.5,3.6-0.9,5.2-0.9c0.7,0,1.7,0,2.6,0.2c0.9,0.2,1.9,0.7,2.6,1.2c0.7,0.7,1.4,1.7,1.9,3.1
	s0.7,3.1,0.5,5.4c-0.2,1.9-0.2,5.9-0.5,12.3c-0.2,6.4-0.2,14-0.5,22.7c-0.2,8.8-0.2,18-0.5,27.7c-0.2,9.7-0.2,18.7-0.5,27.2
	c-0.2,8.3-0.2,15.4-0.2,21.1s0,8.8,0,9.5C778.2,959.9,778.7,960.3,779.4,960.3z"/>
<path d="M839.3,828.9c7.3-0.2,14.2,0.9,21.1,3.1c6.6,2.1,12.5,5.9,17.8,11.6c5,5.7,9,13,11.8,22.7c2.8,9.5,4,21.5,3.8,36.2
	c-0.2,9.7-1.7,18.2-3.8,25.6c-2.4,7.3-5.2,13.5-8.5,18.7c-3.3,5.2-7.1,9.7-11.4,13c-4,3.6-8.3,6.2-12.3,8.3c-4,2.1-7.8,3.6-11.4,4.5
	c-3.6,0.9-6.6,1.4-9,1.4c-3.8,0-5.9-0.5-6.9-1.4c-0.7-0.9-1.2-2.6-1.2-5c0-0.7,0-4,0-9.9c0-5.9,0.2-12.8,0.2-21.3
	c0.2-8.3,0.2-17.5,0.5-27.5c0.2-9.9,0.5-19.7,0.5-29.1c0.2-9.5,0.2-18.2,0.5-26.3c0.2-8.1,0.2-14,0.5-18.2c0.2-1.4,0.5-2.6,0.9-3.6
	c0.5-0.7,1.2-1.4,2.1-1.7c0.7-0.2,1.7-0.5,2.4-0.7C838.1,829.2,838.8,828.9,839.3,828.9z M844.7,958.5c2.8-0.7,6.4-2.6,10.4-5
	c4-2.6,8.1-6.2,11.8-10.9c3.8-4.7,7.1-10.7,9.7-17.8c2.6-7.1,4-15.4,4.3-25.1c0.2-13-1.2-23.2-3.8-30.8c-2.6-7.3-5.7-12.8-9.5-16.3
	c-3.8-3.6-7.6-5.7-11.6-6.4c-4-0.7-7.3-1.2-9.9-1.2L844.7,958.5z"/>
<path d="M621.7,735.9c-0.2,13.7-0.5,26.3-0.9,37.6c0,4.7-0.2,9.5-0.5,14.2c-0.2,4.7-0.2,8.8-0.5,12.5c0,3.8-0.2,6.9-0.2,9.5
	s-0.2,4-0.2,4.5c-0.2,1.9-0.7,3.1-1.7,3.8s-2.4,0.9-4.5,0.9c-1.9,0-3.1-0.5-3.8-1.7s-0.9-2.4-0.9-4c0-0.9,0-3.3,0-7.1
	s0.2-8.5,0.2-14c0-5.4,0.2-11.1,0.2-17.5c0-6.2,0.2-12.1,0.2-17.5c0-5.4,0.2-10.2,0.2-14.2c0-4,0-6.6,0-7.6h-13.3
	c-0.7,0-1.4-0.2-1.9-0.5c-0.5-0.2-0.9-0.7-1.2-1.4c-0.2-0.7-0.5-1.4-0.5-2.6c0-2.4,0.7-3.8,2.1-4.3c1.4-0.5,2.8-0.9,4.5-0.9
	c0.5,0,1.7,0,3.6,0c1.7,0,3.8,0,6.2,0.2c2.4,0,4.7,0,7.3,0.2c2.6,0,5,0,7.3,0.2c2.4,0.2,4.3,0,5.9,0.2c1.7,0,2.8,0,3.3,0
	c1.4,0,2.8,0.5,4.5,0.9c1.4,0.7,2.1,2.1,2.1,4.3c-0.2,1.9-0.9,2.8-2.6,3.3c-1.4,0.2-2.8,0.5-4.3,0.5h-10.9V735.9z"/>
<path d="M656.7,726.9c4-0.2,8.1,0,12.1,0.5c4,0.5,7.3,1.7,10.4,3.3c3.1,1.7,5.4,4.3,7.1,7.3c1.7,3.1,2.6,7.3,2.6,12.5
	c0,4.7-0.7,8.8-1.7,12.1c-1.2,3.3-2.4,6.2-4,8.5c-1.7,2.4-3.3,4.3-5,5.7c-1.7,1.4-3.3,2.6-4.7,3.6c1.7,3.3,3.3,6.9,5,10.4
	c1.7,3.6,3.3,6.6,5,9.7c1.7,3.1,2.8,5.7,4,8.1c1.2,2.4,1.9,4,2.1,5c0.5,1.7,0.7,3.1,0.5,3.6c-0.2,0.7-1.2,1.2-2.8,1.9
	c-3.3,1.4-6.2,0-8.3-4c-0.9-2.1-2.1-4.5-3.6-7.6c-1.4-3.1-2.8-5.7-4.3-8.8c-1.4-2.8-3.1-5.7-4.7-8.3c-1.7-2.6-3.1-4.5-4.5-6.2
	c0,0.9-0.2,2.4-0.2,4.3c0,1.7,0,3.8,0,5.9c0,2.1,0,4.5,0,6.9s0,4.7,0,7.1v6.2c0,2.1-0.7,3.3-1.7,3.8c-1.2,0.5-2.4,0.7-4,0.7
	s-2.8-0.2-3.6-0.9c-0.7-0.7-1.2-1.9-1.4-3.6c0-0.5,0-2.1,0-4.5c0-2.6,0-5.7,0-9.5s0-8.1,0-12.8c0-4.7,0-9.5,0-14.4s0-9.7,0-14.4
	c0-4.7,0-9,0-12.8c0-3.8,0-7.1,0-9.7s0-4.3,0-4.7c0-2.1,0.5-3.3,1.9-3.8C654.4,727.4,655.3,726.9,656.7,726.9z M661,738.5
	c0,4.7,0,9.2,0.2,13.7c0,3.8,0,7.6,0,11.8c0,4,0,7.6,0,10.2c5-0.5,9-2.4,12.3-5.9c3.3-3.6,5.4-8.3,6.2-14.4c0.2-3.1,0-5.7-1.2-7.8
	c-0.9-2.1-2.4-3.8-4.3-5.2c-1.7-1.2-3.8-2.1-5.9-2.6c-2.4-0.5-4.5-0.7-6.9-0.5C661.2,737.6,661,738,661,738.5z"/>
<path d="M700.8,814.3c0-0.2,0.2-1.7,0.5-4c0.2-2.4,0.7-5.2,1.4-9c0.5-3.6,1.2-7.6,1.9-12.3c0.7-4.5,1.4-9.2,2.4-14.2
	c0.9-4.7,1.7-9.7,2.4-14.4c0.7-4.7,1.4-9.2,2.1-13c0.7-4.5,1.4-8.1,1.9-10.9c0.5-2.8,0.7-4.7,0.9-5.4c0.2-2.1,1.2-3.6,2.8-4.3
	c1.7-0.7,3.1-0.9,4.5-0.7c1.4,0,2.6,0.5,4,0.9c1.4,0.5,2.1,1.7,2.6,3.3c0.2,0.7,0.7,2.6,1.7,6.2c0.9,3.3,1.9,7.6,3.1,12.8
	c1.2,5.2,2.6,10.7,4,16.8c1.4,6.2,2.8,12.1,4,17.8c1.2,5.7,2.6,11.1,3.6,16.1s1.7,8.8,2.1,11.6c0,1.4-0.2,2.6-0.9,3.3
	c-0.7,0.9-1.4,1.4-2.1,1.9c0,0-0.2,0-0.5,0c-0.2,0-0.2,0-0.5,0c-0.5,0.2-1.2,0.2-1.9,0.2s-1.4-0.2-2.1-0.7c-0.7-0.2-1.4-0.9-1.9-1.7
	c-0.5-0.7-0.9-1.9-1.2-3.1c-0.2-1.4-0.7-3.3-0.9-5.4c-0.2-2.1-0.7-4.3-1.2-6.2c-0.5-2.4-0.9-4.5-1.4-6.9c-0.5,0-1.4,0-2.1-0.2
	c-0.7,0-1.7,0-2.6,0c-0.9,0-2.1,0-3.3,0c-1.7,0-3.3,0-5,0.2c-1.7,0-3.3,0.2-5,0.7c-0.5,2.1-0.7,4-1.2,6.4c-0.2,2.1-0.7,4.3-0.9,6.4
	c-0.2,2.1-0.5,3.8-0.5,5.4c-0.2,1.7-0.2,2.8-0.5,3.6c-0.2,1.4-0.7,2.4-1.7,3.1c-0.9,0.7-2.1,0.9-4.3,0.9c-1.9,0-3.1-0.5-3.8-1.4
	C701,817.1,700.8,815.9,700.8,814.3z M716.6,784.4c0.5,0,0.9,0.2,1.4,0.2c0.5,0,0.9,0.2,1.7,0.2s1.4,0,2.4,0c0.7,0,1.9,0,3.3,0
	c1.4,0,2.6,0,3.6-0.2c-0.2-3.1-0.7-6.6-1.2-10.7c-0.5-4-1.4-8.5-2.1-13.3c-0.5-2.6-0.9-5.4-1.4-7.8c-0.5-2.6-0.7-4.5-0.9-6.2
	c0-0.5-0.5-0.9-0.9-0.9s-0.7,0.2-0.9,0.9c-0.9,5.7-1.9,10.9-2.6,15.9c-0.2,2.1-0.7,4.3-0.9,6.4c-0.2,2.1-0.7,4-0.9,6.2
	c-0.2,2.1-0.5,3.8-0.7,5.2c-0.2,1.7-0.5,2.8-0.5,3.8L716.6,784.4z"/>
<path d="M774.6,796c0.2-3.8,0.7-8.1,1.4-12.5c0.5-4.5,1.2-9,1.9-13.7c0.7-4.7,1.4-9,2.1-13.5c0.7-4.5,1.2-8.5,1.9-12.1
	c0.5-3.6,0.9-6.6,1.4-9.2c0.5-2.6,0.7-4.3,0.7-5.2c0-1.9,0.7-3.1,1.9-3.3c1.2-0.2,2.4-0.2,3.6-0.2c1.4,0,2.6,0.2,3.6,0.9
	c0.9,0.7,1.4,2.4,1.4,5c0,0.9-0.2,2.6-0.7,5.2c-0.2,2.6-0.7,5.9-1.4,9.5c-0.5,3.8-1.2,7.8-1.9,12.5c-0.7,4.5-1.4,9.2-2.4,13.7
	c-0.7,4.7-1.7,9.2-2.4,13.7c-0.7,4.5-1.4,8.5-2.1,12.3c-0.7,3.8-1.2,6.9-1.7,9.5c-0.5,2.6-0.7,4.3-0.9,5c-0.5,2.6-1.4,4-2.6,4.5
	c-1.2,0.5-2.8,0.7-5,0.7c-0.7,0-1.4,0-2.1,0c-0.7,0-1.4-0.2-1.9-0.7c-0.5-0.5-1.2-0.9-1.7-1.9c-0.5-0.9-0.9-1.9-1.4-3.6
	c-0.2-0.9-0.7-2.8-1.4-5.7c-0.7-2.8-1.4-6.2-2.4-9.9s-1.9-8.1-2.8-12.8c-0.9-4.7-2.1-9.5-3.1-14.2c-1.2-4.7-2.1-9.5-3.1-14
	c-0.9-4.5-1.9-8.8-2.6-12.3s-1.4-6.6-1.7-9.2c-0.5-2.4-0.7-4-0.7-4.5c0-1.7,0.2-2.6,0.9-3.1c0.7-0.5,1.7-0.7,2.8-0.7
	s2.1,0.2,3.1,0.7c0.9,0.5,2.1,1.4,3.1,3.1c0.2,0.5,0.7,1.9,1.2,4c0.5,2.1,1.2,4.7,1.9,7.8c0.7,3.1,1.4,6.6,2.4,10.7
	c0.9,3.8,1.7,7.8,2.4,11.8c1.9,9.2,4,19.7,6.2,31.3c0.5,0.2,0.7,0.5,0.9,0.5C773.9,796.5,774.2,796.3,774.6,796z"/>
<path d="M810.9,727.6c3.3-0.2,6.9-0.5,11.1-0.7c4.3-0.2,8.1-0.5,11.4-0.5c3.8,0,6.6,0.2,8.3,0.7c1.9,0.5,3.1,1.2,3.6,2.1
	s0.5,1.7,0.2,2.4c-0.2,0.7-0.5,1.7-1.2,2.6c-0.7,0.9-1.9,1.9-4.3,2.1c-1.2,0.2-3.1,0.5-5.4,0.7c-2.4,0.2-4.7,0.2-7.1,0.5
	c-2.8,0.2-5.9,0.2-9,0.5l0.2,30.1c5.2,0,9.5,0,13,0c3.6,0,5.7,0.2,6.4,0.2c0.5,0.2,0.9,0.5,1.7,0.7s1.4,0.5,1.9,0.9
	c0.5,0.5,0.9,0.9,1.4,1.7c0.2,0.7,0.5,1.4,0.5,2.6c0,0.9-0.5,1.7-0.9,2.4s-1.2,1.2-1.9,1.4s-1.4,0.7-2.1,0.7
	c-0.7,0.2-0.9,0.2-1.2,0.2h-9c-2.4,0-4.3,0-6.2,0.2c-1.9,0.2-2.8,0.2-2.8,0.5v14.9c0,4.3,0,9.2,0.2,14.7c1.7,0,3.6-0.2,5.7-0.2
	c2.1,0,4.5-0.2,6.9-0.2c2.4,0,4.5,0,6.9,0c2.4,0,4,0,5.4,0.2c1.7,0,2.6,0.7,3.3,1.7c0.7,0.9,0.9,2.1,0.7,3.8
	c-0.2,1.4-0.7,2.4-1.9,2.8c-0.9,0.5-2.6,0.7-4.7,0.9c-1.2,0-3.1,0.2-5.7,0.2c-2.6,0-5.4,0-8.3,0.2c-2.8,0-5.7,0-8.1,0.2
	c-2.4,0.2-4,0-5,0c-1.4,0-2.6-0.2-3.3-0.9c-0.9-0.5-1.4-1.9-1.7-3.6c0-0.5,0-2.1-0.2-4.5c0-2.6-0.2-5.7-0.2-9.5s-0.2-8.1-0.5-12.8
	c-0.2-4.7-0.2-9.5-0.5-14.4c0-5-0.2-9.7-0.5-14.4c-0.2-4.7-0.2-9-0.2-12.8c0-3.8,0-7.1-0.2-9.5c-0.2-2.4,0-4,0-4.5
	c0-1.7,0.5-2.8,1.2-3.3C809.4,728.1,810.2,727.8,810.9,727.6z"/>
<path d="M871.7,810.2c3.1,0,5.9,0,8.5,0.2c2.4,0,4.5,0.2,6.6,0.2c2.1,0,3.8,0,5,0c1.7,0,2.8,0.5,3.3,1.4c0.5,0.9,0.5,1.7,0.5,2.6
	c0,0.9-0.2,1.9-0.7,2.8c-0.5,0.9-1.9,1.4-4.5,1.7l-26.3-0.2c-1.2,0-2.1-0.2-2.8-0.9s-0.9-1.9-0.9-4c0-3.3,0-7.6,0-13
	c0-5.4,0-10.9,0-16.8c0-5.9,0-11.8,0.2-18c0-6.2,0-11.6,0.2-16.8c0-5,0-9.2,0.2-12.8c0-3.6,0-5.4,0-6.2c0-2.1,0.7-3.3,2.1-3.8
	c1.4-0.5,2.6-0.7,3.8-0.7c0.5,0,1.2,0,1.9,0.2s1.2,0.5,1.9,0.7c0.5,0.5,0.9,0.9,1.4,1.9c0.5,0.9,0.5,2.1,0.5,3.3s-0.2,3.8-0.2,7.8
	c0,4-0.2,9-0.2,14.4c0,5.7-0.2,11.4-0.2,17.8c0,6.2-0.2,12.1-0.2,17.3c0,5.2-0.2,9.9-0.2,13.5c0,3.6,0,5.7,0,6.2
	C871,810,871.2,810.2,871.7,810.2z"/>
<path d="M351.1,542.7c5-7.6,8.3-14.9,9.9-22.3c1.2-4.3,1.7-7.8,1.7-10.4c0-1.9-0.2-3.3-0.9-4.3c-5.7,0.5-11.4,6.2-16.6,16.8
	c-5.4,10.7-9.7,22.7-12.8,36.2C339.9,555.5,346.3,550.3,351.1,542.7z"/>
<path d="M527.5,606.1c4.3,0,7.6-1.4,9.9-4.3c2.4-2.8,3.8-6.2,4-9.9c-8.1,3.6-18.7,5.4-31.7,6.4C512.3,603.3,518.2,606.1,527.5,606.1
	z"/>
<path d="M851.1,665.8c5.7-12.5,9.7-98,9.7-98C866.5,394,798.3,371,798.3,371C690.6,293.9,481,329.4,481,329.4
	C304.9,352.1,250.4,417,234.3,447.3c-4.7,9-9.9,17.5-15.4,26c-28.2,43.1-29.8,161.5-29.8,161.5c0,10.9,2.8,20.6,7.3,29.1
	c12.5,23.9,38.1,38.4,65.1,39.1l178,3.6c-1.4,16.3,4,29.8,11.1,40.5c14,20.8,38.1,32.2,63.2,32.4c67,0.7,71.7-75.5,71.7-75.5
	l232.3,1.2c10.7,0,20.6-4.7,27.2-13l48.8-3.6l2.1,60.6h7.6v-82.9h-52.6V665.8z M469.2,538.7c-3.6,25.8-8.3,45-14.7,58
	c-7.8,15.9-19.2,23.7-34.6,23.7c-12.5,0-20.8-4.7-24.9-14.2c-1.2-3.1-2.1-6.4-2.6-10.4c-5.4,6.9-11.6,12.1-18.5,16.1
	c-10.2,5.7-20.8,8.3-32.2,8.3c-12.3,0-21.8-2.4-28.4-7.3c-5.2-3.8-9-8.5-11.8-14.2c-3.6,6.4-7.8,11.6-13,15.4
	c-5.7,4.3-12.5,6.4-20.8,6.4c-12.8,0-21.1-4.5-24.9-13.5c-2.1-5.2-3.1-12.1-3.1-20.1c0-5.9,0.9-14.9,2.6-27.5
	c1.9-12.3,5.7-31.5,11.8-57.5l5.9-25.3c1.4-5.9,3.8-17,7.3-33.9l1.2-3.8c0.5-2.4,1.4-4.7,2.6-6.9s3.1-4,5.7-5.4
	c2.6-1.4,6.6-2.1,12.1-2.1c4.7,0,8.1,1.2,10.2,3.3c2.1,2.1,3.1,5.2,3.1,9.2c0,3.3-0.5,6.9-1.4,10.7c-2.1,7.8-5.9,25.3-11.8,52.6
	l-1.4,6.6c-3.1,16.1-5.9,30.1-8.5,42.1c-4.5,21.1-6.9,34.6-6.9,40.3c0,4.3,1.2,6.4,3.3,6.4c4,0,7.8-1.9,11.4-5.4
	c3.3-3.1,6.4-8.3,9.2-15.2c0-0.5,0-1.2,0-1.7c0-2.1,0.2-6.2,0.7-12.1c0.5-5.9,2.4-13.7,5.4-23.4c3.3-9.7,7.1-18.7,11.8-26.8
	c4.7-8.1,9.5-14.7,14.7-19.7c5.2-5,10.2-7.6,14.7-7.6c8.3,0,14.9,0.9,20.1,3.1c5,1.9,9.9,6.2,14.7,12.8c3.6,7.1,5.2,14.4,5.2,22.3
	c0,4-0.9,10.2-2.8,18.2c-1.9,8.3-7.6,16.3-16.8,24.6c-7.6,6.6-16.6,9.9-27.2,9.9c-2.4,0-5-0.2-7.3-0.5c-0.5,3.1-0.7,5.9-0.9,8.5
	c0,7.3,3.3,12.8,9.9,16.1c3.8,1.9,7.8,2.8,12.1,2.8c3.6,0,8.5-0.9,15.2-2.8c6.4-1.9,13.7-8.1,21.5-18.2c1.9-2.6,3.8-5.4,5.4-8.5
	c0.5-4,0.9-8.5,1.7-14c1.7-12.3,5.9-30.8,12.3-55.6c0.5-1.7,2.1-8.8,5-21.1h-11.4c-1.7,0-3.1-0.5-3.8-1.7c-0.9-0.9-1.2-2.1-1.2-3.6
	c0-5,1.2-8.5,3.3-10.4c1.4-1.2,2.8-1.7,4.5-1.7h12.8c1.9-9,3.6-15.9,4.5-20.6l1.2-3.8c0.5-2.4,1.4-4.7,2.6-6.9
	c1.2-2.1,3.1-4,5.7-5.4c2.6-1.4,6.6-2.1,11.8-2.1c8.8,0,13,4.3,13,12.5c0,3.3-0.5,6.9-1.4,10.7c-0.9,3.3-2.1,8.5-3.8,15.9h11.4
	c0-1.4,0.2-3.1,0.2-4.7c0.5-7.8,1.4-14.9,2.6-21.3c1.2-5,3.3-8.3,6.4-10.4c3.1-1.9,6.6-3.1,10.2-3.1c1.9,0,3.8,0.5,5.9,1.7
	s4,2.8,5.2,5c0.7,1.2,0.9,2.6,0.9,4.3c0,1.4-0.2,2.8-0.7,4.3c-2.1,5.4-4.5,12.1-7.1,19.7c-0.9,2.8-1.9,5.4-2.6,7.8
	c0.2,0.5,0.2,0.9,0.2,1.7c0,5.2-1.2,8.8-3.3,10.4c-0.2,0.2-0.7,0.5-0.9,0.7c-0.5,0.7-0.9,1.4-1.4,1.9c-0.9,0.7-1.9,1.2-2.8,1.4
	c-0.9,0.2-1.7,0.5-2.1,0.5c-3.3,0-6.2-0.5-8.3-1.2c-0.7-0.2-1.4-0.7-1.9-1.4h-15.9c-1.7,7.8-3.1,14.2-4.3,19.4l-1.4,6.6
	c-3.1,16.1-5.7,30.1-8.3,42.1c-4.5,20.8-6.6,34.3-6.6,40c0,4.5,1.2,6.6,3.3,6.6c4,0,7.6-1.9,11.4-5.4c7.6-7.6,14.2-25.8,19.9-54.5
	c0.2-1.4,0.9-2.4,1.7-3.1c0.7-0.7,2.1-0.9,3.6-0.9c1.9,0,3.1,0.5,4,1.7c0.5,0.9,0.9,1.9,0.9,3.6L469.2,538.7z M508.3,751.5
	c-20.8,0-37.9-17-37.9-37.9s17-37.9,37.9-37.9s37.9,17,37.9,37.9C546.2,734.7,529.1,751.5,508.3,751.5z M601.8,547.7
	c-1.7,7.1-5,13.5-9.9,18.9c-5,5.4-10.4,9.7-16.8,12.3l0.2,3.8v1.9c0,6.4-2.1,12.1-6.2,17.5c-4,5.4-9.2,9.9-15.4,13.3
	c-6.2,3.3-12.5,5-18.7,5c-21.5,0-35.5-6.9-41.9-20.4c-0.5-1.4-0.7-3.1-0.7-4.5c0-2.6,1.2-5,3.3-7.3c2.1-2.4,7.8-3.8,16.8-4.3h0.5
	c10.2-0.7,19.2-2.4,26.8-5c-2.4-6.9-6.6-13.3-13-19.4c-8.5-9-14.2-16.3-17-21.5c-2.8-5.2-4.3-11.6-4.3-18.7c0-6.9,1.9-13,5.7-18.5
	c3.8-5.4,8.8-9.7,15.2-12.8c6.2-3.1,13-4.7,20.6-4.7c9.9,0,18.2,2.1,24.9,6.2c6.9,4.3,11.1,8.8,12.8,14.2c0.5,1.4,0.7,2.8,0.7,4.3
	c0,3.8-1.7,7.1-5.2,9.9c-3.1,1.2-5.4,1.7-7.8,1.7c-4.7,0-8.8-3.8-11.8-11.1c-1.4-3.1-2.8-5.9-4.7-8.3c-1.9-2.4-4.7-3.6-8.5-3.6
	c-5,0-8.5,2.4-9.9,7.1c-0.7,1.9-0.9,3.8-0.9,5.9c0,3.3,0.9,7.8,3.1,13.3c2.1,5.4,6.6,11.8,14,18.9c9.7,8.1,16.1,16.1,19.2,24.2
	c10.9-3.3,18.2-11.4,21.5-24.4l1.4-6.2c0.5-1.4,0.9-2.4,1.7-3.1c0.7-0.5,1.7-0.9,2.8-0.9h0.9c1.2,0,2.1,0.5,2.6,1.7
	c0.5,0.7,0.5,1.7,0.5,2.6C603.9,537.5,603.2,541.5,601.8,547.7z M732.3,659.2c0,8.8-7.1,15.6-15.6,15.6h-91.2
	c-8.8,0-15.6-7.1-15.6-15.6V394.7c0-8.8,7.1-15.6,15.6-15.6h91.2c8.8,0,15.6,7.1,15.6,15.6V659.2z"/>
<circle cx="508.3" cy="712.5" r="15.4"/>
<rect x="634.9" y="402.1" width="72.5" height="79.3"/>
</svg>
