<?xml version="1.0" encoding="UTF-8"?>
<svg version="1.1" xmlns="http://www.w3.org/2000/svg" width="864" height="663">
<path d="M0 0 C285.12 0 570.24 0 864 0 C864 218.79 864 437.58 864 663 C578.88 663 293.76 663 0 663 C0 444.21 0 225.42 0 0 Z " fill="#FDFDFD" transform="translate(0,0)"/>
<path d="M0 0 C1.01835938 0.66644531 2.03671875 1.33289062 3.0859375 2.01953125 C33.2859874 22.78735268 45.46981166 62.20902582 52.33886719 96.38427734 C56.80125718 120.7890025 58.21220559 145.23675912 58.1875 170 C58.18659363 171.68023254 58.18659363 171.68023254 58.18566895 173.39440918 C58.14502712 201.33318616 56.86683277 229.01530802 54.0625 256.8125 C53.98318237 257.60394409 53.90386475 258.39538818 53.82214355 259.21081543 C52.66463793 270.56842978 50.88065111 281.71609334 49 293 C66.16 293 83.32 293 101 293 C101 320.39 101 347.78 101 376 C98.36 376 95.72 376 93 376 C91.87376261 372.62128782 91.79113857 369.89377398 91.68359375 366.33203125 C91.66276733 365.66793243 91.64194092 365.00383362 91.6204834 364.3196106 C91.55438943 362.15068987 91.495569 359.98164936 91.4375 357.8125 C91.41632111 357.07734161 91.39514221 356.34218323 91.37332153 355.58474731 C90.99357711 342.38894317 90.87526127 329.20119537 91 316 C89.97753174 316.08564209 88.95506348 316.17128418 87.90161133 316.25952148 C84.04552826 316.58238974 80.18939689 316.90467815 76.33325195 317.22680664 C74.67601252 317.36532457 73.01878557 317.50399206 71.36157227 317.64282227 C69.7517506 317.77766369 68.14189759 317.91213154 66.53201294 318.04621887 C64.94289239 318.17925666 63.35392095 318.31408792 61.7651062 318.45072937 C58.20010612 318.75383758 54.64653084 319.018392 51.07275391 319.2043457 C49.92339355 319.26581787 48.7740332 319.32729004 47.58984375 319.390625 C46.60234131 319.4309082 45.61483887 319.47119141 44.59741211 319.51269531 C40.66790741 320.24991604 38.61845841 322.41833669 35.90234375 325.21484375 C29.83181228 330.91142051 21.53792088 332.12432501 13.53652954 332.12698364 C11.5723835 332.13121338 11.5723835 332.13121338 9.56855774 332.13552856 C8.12203966 332.13358368 6.67552171 332.13153548 5.22900391 332.12939453 C3.69816547 332.13075083 2.16732736 332.13253205 0.63648987 332.13470459 C-3.5393438 332.13927708 -7.7151528 332.13748343 -11.89098692 332.1343255 C-16.33541645 332.13177106 -20.77984405 332.13415068 -25.22427368 332.13571167 C-32.75856901 332.13753689 -40.29285459 332.13513081 -47.82714844 332.13037109 C-55.40755869 332.12563507 -62.98794923 332.12545269 -70.56835938 332.13037109 C-119.7210866 332.16152834 -168.85448368 331.86637856 -218 331 C-217.99216995 332.10689178 -217.9843399 333.21378357 -217.97627258 334.35421753 C-217.99550705 337.30964612 -218.17783573 339.56392947 -218.91796875 342.3828125 C-219.11753174 343.15101318 -219.31709473 343.91921387 -219.52270508 344.71069336 C-219.7420874 345.50741455 -219.96146973 346.30413574 -220.1875 347.125 C-220.41526123 347.9610376 -220.64302246 348.7970752 -220.87768555 349.65844727 C-226.1723548 368.65245724 -235.21415714 386.18808854 -252.109375 397.3984375 C-269.61469046 407.0973285 -290.96477149 409.52347915 -310.45214844 404.56567383 C-329.89977209 398.60015933 -346.16445485 386.47311024 -356.19384766 368.71850586 C-358.63244775 364.11327987 -360.45913809 359.41158956 -362 354.4375 C-362.20778076 353.79039062 -362.41556152 353.14328125 -362.62963867 352.4765625 C-363.88790194 348.00959022 -364.08867247 343.85939307 -364.05078125 339.21899414 C-364.03978394 337.47000572 -364.03978394 337.47000572 -364.02856445 335.6856842 C-364.01442505 334.35627052 -364.01442505 334.35627052 -364 333 C-364.64396729 333.00444122 -365.28793457 333.00888245 -365.95141602 333.01345825 C-403.08686212 333.25568462 -440.18618101 332.94007608 -477.3125 332.0625 C-478.24640564 332.04061867 -479.18031128 332.01873734 -480.14251709 331.99619293 C-490.72008626 331.74796233 -501.29703132 331.48338875 -511.87344551 331.18990707 C-516.46759282 331.06366416 -521.06165323 330.9530734 -525.65659428 330.86018848 C-527.72979558 330.81686065 -529.80276612 330.76771263 -531.8757782 330.71617126 C-534.32575526 330.65574158 -536.7759856 330.604378 -539.22639465 330.56520081 C-560.98920832 329.96787759 -579.5161373 322.20418702 -595 307 C-596.06927734 305.96746094 -596.06927734 305.96746094 -597.16015625 304.9140625 C-603.07273974 298.78502605 -606.69860048 291.76455736 -610 284 C-610.65548828 282.46666016 -610.65548828 282.46666016 -611.32421875 280.90234375 C-621.07174617 253.30145033 -611.87675143 215.8770006 -608.921875 187.4296875 C-608.84204376 186.65593277 -608.76221252 185.88217804 -608.67996216 185.0849762 C-608.06953568 179.31333876 -607.16411505 173.68146716 -606 168 C-605.71878887 166.53149133 -605.43897608 165.06271457 -605.16015625 163.59375 C-599.64499437 134.84141073 -591.70485969 111.37755367 -576.15625 86.54296875 C-574.50671234 83.87254711 -572.94578606 81.16104616 -571.40625 78.42578125 C-543.5168894 28.88214369 -494.95784502 2.0858484 -443 -17 C-441.87078125 -17.41668945 -441.87078125 -17.41668945 -440.71875 -17.84179688 C-436.52036322 -19.36963723 -432.28118596 -20.7271599 -428 -22 C-427.18257324 -22.24637207 -426.36514648 -22.49274414 -425.52294922 -22.74658203 C-392.95530263 -32.47112029 -359.17428165 -40.19693071 -325.3203125 -43.5390625 C-319.50688229 -44.12663323 -313.73349762 -45.0005624 -307.95507812 -45.85986328 C-216.66502372 -59.33339541 -108.808448 -58.53017378 0 0 Z " fill="#010101" transform="translate(695,54)"/>
<path d="M0 0 C0.96440506 -0.0065712 1.92881012 -0.0131424 2.92243958 -0.01991272 C6.12448194 -0.03967547 9.3264773 -0.05131597 12.52856445 -0.0612793 C13.62124949 -0.06535482 14.71393452 -0.06943035 15.83973122 -0.07362938 C21.62492307 -0.09450446 27.41009111 -0.10879902 33.1953125 -0.11816406 C39.16967917 -0.12922151 45.14367267 -0.16360994 51.11790752 -0.20333576 C55.71190581 -0.22949233 60.30581516 -0.23785515 64.89988136 -0.24144554 C67.10187101 -0.24631525 69.30385659 -0.25794012 71.50577354 -0.27648354 C74.59138819 -0.30085016 77.6760372 -0.29991399 80.76171875 -0.29296875 C82.121866 -0.31218384 82.121866 -0.31218384 83.50949097 -0.33178711 C89.42624607 -0.28334641 92.92739059 0.59552625 97.7043457 4.17700195 C102.48262019 9.59067834 102.27068624 14.43550487 102.21228027 21.29821777 C102.21852024 22.42208783 102.2247602 23.54595788 102.23118925 24.7038846 C102.24715087 28.47182948 102.23450187 32.23913033 102.22192383 36.00708008 C102.22734353 38.70757436 102.23432053 41.40802419 102.24316406 44.10850525 C102.26094549 50.68309211 102.25711105 57.25749625 102.2455135 63.83209026 C102.23647794 69.17563747 102.2352557 74.5191335 102.23960876 79.86268616 C102.2402217 80.62336522 102.24083463 81.38404429 102.24146613 82.16777423 C102.24274504 83.71310565 102.2440419 85.25843706 102.2453565 86.80376846 C102.25676119 101.29250241 102.24365036 115.78113511 102.22215503 130.26985246 C102.20428413 142.70037878 102.20738827 155.13075568 102.22583008 167.5612793 C102.24723877 181.99835466 102.25566257 196.4353413 102.24338102 210.87243032 C102.24210683 212.41205945 102.24084935 213.95168859 102.23960876 215.49131775 C102.23899166 216.24883387 102.23837456 217.00635 102.23773876 217.78682116 C102.23428585 223.12361391 102.24011292 228.46035036 102.24952698 233.7971344 C102.26074835 240.30141648 102.25770415 246.80550548 102.236404 253.30976546 C102.22589519 256.62806379 102.22392356 259.94597393 102.23500061 263.26428032 C102.24590381 266.86177167 102.23225398 270.45835302 102.21228027 274.05578613 C102.22120316 275.10422715 102.23012605 276.15266816 102.23931932 277.23288012 C102.17476556 283.21223133 101.66922749 286.61406577 97.7043457 291.17700195 C93.80626498 294.69478212 90.91552895 296.29550533 85.66349792 296.31744385 C84.84345779 296.32315399 84.02341766 296.32886414 83.17852783 296.33474731 C82.28236755 296.33586517 81.38620728 296.33698303 80.46289062 296.33813477 C79.51624039 296.34309967 78.56959015 296.34806458 77.59425354 296.35317993 C74.45776649 296.36780306 71.32133002 296.37460391 68.18481445 296.38012695 C66.00629169 296.38587839 63.82776895 296.39163612 61.64924622 296.3973999 C57.07866174 296.40791039 52.50809486 296.41375271 47.9375 296.41723633 C42.08307729 296.42272037 36.22888723 296.44674644 30.37453747 296.47520828 C25.87322817 296.49383929 21.37197486 296.49904052 16.87063026 296.5005722 C14.71248414 296.50359833 12.55433899 296.51162549 10.3962307 296.52475739 C7.37530231 296.54182686 4.35494153 296.53993525 1.33398438 296.53344727 C0.44389679 296.54266205 -0.4461908 296.55187683 -1.36325073 296.56137085 C-7.12545634 296.52263745 -11.55003355 295.7400161 -15.94018555 291.6418457 C-18.98059707 287.66592295 -20.41915638 285.63276043 -20.42987537 280.66850662 C-20.43433322 279.71377433 -20.43879106 278.75904204 -20.44338399 277.77537847 C-20.44319963 276.71917703 -20.44301527 275.6629756 -20.44282532 274.57476807 C-20.44650201 273.45839926 -20.45017869 272.34203046 -20.4539668 271.1918323 C-20.46503998 267.42549106 -20.46885361 263.65917738 -20.47265625 259.89282227 C-20.47891812 257.20278762 -20.48555155 254.51275596 -20.49256897 251.82272339 C-20.51234441 243.7315084 -20.5224011 235.64029215 -20.53129676 227.54905903 C-20.53567802 223.74037477 -20.54104526 219.93169189 -20.54628563 216.12300873 C-20.56329922 203.46471571 -20.57779379 190.80642357 -20.58503437 178.14812088 C-20.58694432 174.86217498 -20.58886464 171.57622908 -20.59082031 168.2902832 C-20.59154592 167.06519783 -20.59154592 167.06519783 -20.59228619 165.81536326 C-20.60058795 152.58252087 -20.62592672 139.34976884 -20.65840099 126.11696592 C-20.69145747 112.53638277 -20.70948186 98.95584557 -20.71267861 85.37522197 C-20.71484506 77.74806922 -20.72361321 70.12104821 -20.74913979 62.49393463 C-20.77082759 55.99873288 -20.77890676 49.50369488 -20.769173 43.00846103 C-20.76462257 39.69422083 -20.76873102 36.3803898 -20.78593445 33.06618118 C-20.80354554 29.47289006 -20.7965994 25.88046112 -20.78340149 22.28717041 C-20.79437074 21.23989187 -20.80533998 20.19261332 -20.81664163 19.11359906 C-20.76348594 13.13474389 -20.26587547 9.73630049 -16.2956543 5.17700195 C-10.76482766 0.30460706 -7.21534882 0.02116008 0 0 Z " fill="#FDFDFD" transform="translate(522.295654296875,59.822998046875)"/>
<path d="M0 0 C0.71220703 -0.020625 1.42441406 -0.04125 2.15820312 -0.0625 C6.688079 -0.0960236 9.69593439 0.28120114 13.1875 3.25 C17.59308954 12.3382784 14.80787567 22.4583722 12.5625 31.8125 C12.29034668 32.99376465 12.01819336 34.1750293 11.73779297 35.39208984 C10.65998038 40.05681303 9.5535473 44.7144748 8.44335938 49.37158203 C4.36909186 66.4739653 0.90141504 83.64745741 -2.42285156 100.90849304 C-2.58881836 101.77013565 -2.75478516 102.63177826 -2.92578125 103.51953125 C-3.08949219 104.36969315 -3.25320312 105.21985504 -3.421875 106.09577942 C-4.74194199 112.93082169 -6.1272305 119.75067442 -7.5625 126.5625 C-7.85302246 127.95045776 -7.85302246 127.95045776 -8.14941406 129.36645508 C-8.89267084 132.91040352 -9.63984667 136.45326942 -10.40673828 139.9921875 C-14.6725754 155.25139721 -14.6725754 155.25139721 -12.8125 170.25 C-6.90352418 169.88822597 -3.04525517 168.48275517 1.1875 164.25 C7.56921122 155.99475888 9.04052169 148.12660989 9.4375 137.9375 C11.13613293 111.02295417 25.55102518 83.03293184 44.09765625 63.9765625 C49.19523329 59.76510633 53.88164305 58.71915435 60.375 58.8125 C61.12458984 58.82152344 61.87417969 58.83054688 62.64648438 58.83984375 C72.78547694 59.15369047 79.99125867 62.15597764 87.31640625 69.24609375 C94.29660975 76.72176055 96.75783059 85.26059778 96.625 95.3125 C96.61364014 96.53924438 96.61364014 96.53924438 96.60205078 97.79077148 C96.15008447 114.82858187 90.5489845 127.86247338 78.1953125 139.76171875 C73.58675193 143.57425522 68.71371594 146.03150462 63.1875 148.25 C62.07375 148.70375 60.96 149.1575 59.8125 149.625 C53.96403015 150.63335687 48.10600778 150.39775748 42.1875 150.25 C42.32711702 162.15662777 42.32711702 162.15662777 48.66796875 171.70703125 C54.63744068 176.49051538 61.92013169 176.08992184 69.17431641 175.48046875 C79.97047363 174.24452739 86.84990405 170.09455713 94.1875 162.25 C94.77273438 161.63640625 95.35796875 161.0228125 95.9609375 160.390625 C102.35700022 153.31274849 105.71425804 147.23219498 106.4375 137.6875 C107.59177565 126.52981358 109.92865021 115.77258802 112.5 104.875 C112.69807251 104.03414856 112.89614502 103.19329712 113.10021973 102.32696533 C114.26758243 97.38615912 115.45110293 92.44936522 116.64215088 87.51422119 C117.45985604 84.11921185 118.26675838 80.72167936 119.07421875 77.32421875 C120.74933315 70.29235538 122.42748794 63.26117926 124.1875 56.25 C123.20007813 56.27320313 122.21265625 56.29640625 121.1953125 56.3203125 C119.91398438 56.33835938 118.63265625 56.35640625 117.3125 56.375 C116.03632813 56.39820313 114.76015625 56.42140625 113.4453125 56.4453125 C110.1875 56.25 110.1875 56.25 108.1875 54.25 C107.78533243 48.92127971 108.32789105 45.10094461 111.25 40.62109375 C114.3494118 38.42776 117.72835386 38.93829109 121.375 39.0625 C122.49938477 39.08280273 122.49938477 39.08280273 123.64648438 39.10351562 C125.49379767 39.13881461 127.34074066 39.19262083 129.1875 39.25 C129.30480469 37.96480469 129.42210937 36.67960937 129.54296875 35.35546875 C130.108468 30.29568652 131.20278203 25.47931096 132.5 20.5625 C132.70044922 19.74716797 132.90089844 18.93183594 133.10742188 18.09179688 C135.00132562 10.83867325 137.88789717 5.6112635 144.1875 1.25 C149.40003156 -0.48751052 156.03425492 -0.96324858 161.23828125 1.0390625 C163.91921963 2.78200507 165.41065798 4.58473698 167.1875 7.25 C168.66262363 18.09044345 165.66383296 28.78086021 163.1875 39.25 C166.8175 39.25 170.4475 39.25 174.1875 39.25 C174.15269531 38.4971875 174.11789062 37.744375 174.08203125 36.96875 C173.79970519 25.89081303 174.130373 13.28576074 181.1875 4.25 C185.7380985 0.85935798 189.27189527 -0.45871596 194.96875 -0.21484375 C198.90057285 0.60890083 201.18689579 2.62447132 204.1875 5.25 C206.17605299 9.22710598 205.56905522 12.93329177 204.37207031 17.06396484 C203.22912323 20.37273998 202.03527523 23.6573867 200.8125 26.9375 C197.98626394 34.52859342 195.6812694 41.66578439 194.70654297 49.73291016 C193.88951326 53.69508151 192.12208543 55.53550847 189.1875 58.25 C186.69995214 59.49377393 184.96094699 59.38306235 182.1875 59.375 C181.300625 59.37757813 180.41375 59.38015625 179.5 59.3828125 C177.1875 59.25 177.1875 59.25 175.1875 58.25 C172.30839412 58.01725791 169.44603505 57.83027243 166.5625 57.6875 C165.76070312 57.64431641 164.95890625 57.60113281 164.1328125 57.55664062 C162.1512489 57.45048543 160.16939729 57.34973145 158.1875 57.25 C158.07664062 58.15492188 157.96578125 59.05984375 157.8515625 59.9921875 C157.06040502 65.51375 155.76622591 70.93191402 154.5625 76.375 C151.68270077 89.57835732 149.14297562 102.83286159 146.66699219 116.11694336 C145.14907337 124.24770896 143.57790135 132.35597788 141.8125 140.4375 C139.56592173 150.84420821 139.03740356 160.60983038 139.1875 171.25 C145.67658429 169.90743084 150.54355896 168.60359743 154.83203125 163.1640625 C163.74840443 149.4372758 168.17080203 132.03306334 170.90893555 116.05053711 C171.86506206 110.69444149 171.86506206 110.69444149 173.6328125 108.2578125 C175.90167929 106.78703955 177.54891587 106.91171998 180.1875 107.25 C182.1875 109.25 182.1875 109.25 182.45751953 111.45166016 C182.42621551 118.40741434 181.56816422 124.84219101 180.0625 131.625 C179.83804199 132.65866699 179.61358398 133.69233398 179.38232422 134.75732422 C169.90464567 177.39059301 169.90464567 177.39059301 153.1875 190.625 C146.45672036 194.27083897 140.83045966 195.79013522 133.25 195.6875 C132.45948242 195.67920166 131.66896484 195.67090332 130.85449219 195.66235352 C123.94076432 195.46190391 118.68671103 194.3915139 113.4296875 189.671875 C108.68156217 184.57968262 105.97051453 179.31408266 106.1875 172.25 C105.49527344 172.86875 105.49527344 172.86875 104.7890625 173.5 C102.60377976 175.43479579 100.39847038 177.34461089 98.1875 179.25 C97.40503906 179.93320312 96.62257813 180.61640625 95.81640625 181.3203125 C81.32590997 193.51551417 64.6263532 196.27839005 46.1875 195.25 C35.90880309 194.24689825 27.32442833 190.90660758 20.1875 183.25 C18.34512753 180.67253953 16.71540861 178.02417509 15.1875 175.25 C14.4140625 176.24 14.4140625 176.24 13.625 177.25 C12.820625 178.24 12.01625 179.23 11.1875 180.25 C10.42373047 181.2090625 10.42373047 181.2090625 9.64453125 182.1875 C3.52989768 189.57543255 -3.10310539 194.3739734 -12.90087891 195.48730469 C-22.30661771 196.06424054 -31.00399407 196.22606585 -38.8125 190.25 C-44.83263831 184.53858673 -46.75426734 175.84476329 -47.015625 167.79296875 C-47.53767566 133.08152517 -38.63742943 99.35347094 -30.51879883 65.84594727 C-28.49284359 57.46216721 -26.51883874 49.07672027 -24.7578125 40.6328125 C-24.60020447 39.87712479 -24.44259644 39.12143707 -24.2802124 38.34284973 C-23.55320521 34.83618093 -22.8402471 31.32721397 -22.14453125 27.81420898 C-18.0585362 7.71032755 -18.0585362 7.71032755 -12.6875 3.125 C-8.27558387 0.24766339 -5.16879537 0.03682134 0 0 Z " fill="#FCFCFC" transform="translate(178.8125,105.75)"/>
<path d="M0 0 C9.50890546 4.24152422 15.38980956 14.14645951 19.125 23.41015625 C24.38451256 38.2964552 26.27105686 52.67028304 26.0625 68.375 C26.05623596 69.14102539 26.04997192 69.90705078 26.04351807 70.69628906 C25.84771014 94.11028169 24.69916108 121.81181077 6.91015625 139.30859375 C-0.0596714 144.7659814 -6.70161635 144.85190078 -15.25 144 C-21.95765554 142.29357243 -26.43014506 137.58502018 -30.25 132 C-32.19370932 128.42863166 -33.77735123 124.78758742 -35.25 121 C-35.54777344 120.23558594 -35.84554688 119.47117187 -36.15234375 118.68359375 C-47.14432234 88.11386224 -44.99198247 42.94428858 -31.4375 13.25 C-24.76822271 0.94544191 -13.61930625 -4.18847712 0 0 Z " fill="#060606" transform="translate(533.25,511)"/>
<path d="M0 0 C12.8610842 3.11310356 23.16942766 8.6032352 30.93359375 19.58398438 C43.80225277 40.93545331 45.40236491 69.96788162 40.04296875 93.90820312 C36.93415104 104.20889844 32.51132396 114.02221054 25.93359375 122.58398438 C25.52109375 123.17050781 25.10859375 123.75703125 24.68359375 124.36132812 C16.61502785 134.95132087 2.75298649 141.98406737 -10.06640625 144.58398438 C-11.74932207 144.7461611 -13.43888812 144.84805248 -15.12890625 144.89648438 C-15.98613281 144.93386719 -16.84335937 144.97125 -17.7265625 145.00976562 C-20.06640625 144.58398438 -20.06640625 144.58398438 -21.69036865 142.87672424 C-23.31963453 140.16205798 -23.43569752 138.62139319 -23.42285156 135.47436523 C-23.42585266 134.45487289 -23.42885376 133.43538055 -23.4319458 132.38499451 C-23.419599 131.2840596 -23.4072522 130.18312469 -23.39453125 129.04882812 C-23.39265808 127.90096329 -23.39078491 126.75309845 -23.38885498 125.57044983 C-23.38212621 123.13181673 -23.36819551 120.69319456 -23.34765625 118.25463867 C-23.31695988 114.58762151 -23.30672514 110.92103825 -23.30078125 107.25390625 C-23.26481066 96.53649725 -23.10455993 85.86452309 -22.4276123 75.16828918 C-22.02274155 68.18431481 -21.97052952 61.20298728 -21.93636322 54.20920372 C-21.92580861 52.12844147 -21.91184029 50.04772949 -21.89678955 47.96699524 C-21.83497514 39.40057656 -21.83497514 39.40057656 -21.81591797 30.83398438 C-21.8167049 27.29095853 -21.79340555 23.74880321 -21.75403595 20.2060051 C-21.73860358 18.22688371 -21.7488802 16.24761509 -21.75970459 14.26846313 C-21.62419346 4.36559278 -21.62419346 4.36559278 -18.71118164 1.27539062 C-13.11686837 -2.30232583 -6.29655951 -1.26764383 0 0 Z " fill="#060606" transform="translate(744.06640625,510.416015625)"/>
<path d="M0 0 C4.78857373 3.85246158 8.08712369 7.06220974 9.11328125 13.3515625 C9.42706764 18.71282714 8.37552628 21.98154139 4.75 26.125 C0.35447522 27.59017493 -3.67142351 27.96333091 -8.25 27.125 C-13.46830495 23.67289057 -16.07354998 17.00731134 -18.7578125 11.578125 C-20.35862214 8.94642748 -21.58833657 7.65161515 -24.25 6.125 C-28.73592616 5.16201048 -32.27454254 5.60741033 -36.3125 7.75 C-39.86536158 13.93885566 -39.19012948 21.1322148 -37.5859375 27.9453125 C-35.32239537 34.22418155 -31.51779009 39.07024152 -27.25 44.125 C-26.610625 44.99125 -25.97125 45.8575 -25.3125 46.75 C-23.45363502 48.89051119 -21.58855058 50.60374999 -19.4375 52.4375 C-12.42658164 58.47105985 -7.40307873 64.85711976 -3.25 73.125 C4.22651282 70.47706838 10.45425672 66.21867359 14.125 59 C14.68563072 57.71645072 15.22981362 56.42546595 15.75 55.125 C16.306875 53.8875 16.306875 53.8875 16.875 52.625 C18.0811122 49.17896514 18.87815003 45.67052321 19.75 42.125 C20.245 41.135 20.245 41.135 20.75 40.125 C22.74954746 40.08245644 24.75041636 40.08419217 26.75 40.125 C27.75 41.125 27.75 41.125 27.921875 44.25390625 C27.28567797 58.58279851 20.92621674 70.41870409 10.75 80.125 C7.26602373 82.80290102 3.681166 85.159417 -0.25 87.125 C-0.43158038 89.09857036 -0.51857122 91.0810809 -0.5625 93.0625 C-1.30210653 103.98958997 -5.77123993 110.49535344 -13.63671875 117.9296875 C-22.6712918 125.51926904 -32.87630381 128.69748906 -44.5625 128.5625 C-45.48385742 128.55492676 -46.40521484 128.54735352 -47.35449219 128.53955078 C-59.14848811 128.25518305 -69.65635009 124.78820318 -78.1015625 116.25390625 C-82.4337183 111.31606989 -83.68171011 108.24251049 -83.5859375 101.60546875 C-83.25 99.125 -83.25 99.125 -81.25 96.125 C-75.3832872 92.21385814 -68.429131 91.80881646 -61.5625 91.1875 C-49.04170705 90.07334716 -49.04170705 90.07334716 -37.25 86.125 C-39.75190621 79.6811369 -43.1471314 74.81671442 -47.875 69.875 C-60.69103954 56.44374278 -71.12331159 44.47954626 -70.83837891 24.99584961 C-70.34912632 14.70812687 -66.29174214 8.18149468 -58.84375 1.16796875 C-41.49987149 -12.4929476 -17.99064308 -12.31316983 0 0 Z " fill="#FBFBFB" transform="translate(468.25,172.875)"/>
<path d="M0 0 C2.61793319 0.42783344 3.30796571 1.32397591 5.0078125 3.328125 C8.71868368 11.45135946 9.58679276 21.23857428 11.11499023 29.97607422 C11.56704292 32.55944016 12.02785868 35.14112009 12.49023438 37.72265625 C13.97126852 46.04684815 15.33368238 54.3682718 16.48706055 62.74511719 C17.09988447 66.96162161 17.79944572 71.15939088 18.515625 75.359375 C18.71311592 76.52058868 18.71311592 76.52058868 18.91459656 77.70526123 C19.4577974 80.89197897 20.00308354 84.07831263 20.55419922 87.26367188 C20.96241445 89.62817644 21.36445121 91.99366703 21.765625 94.359375 C21.89059357 95.07194458 22.01556213 95.78451416 22.14431763 96.51867676 C22.81481584 100.50091459 23.13307714 104.29129479 23.0078125 108.328125 C24.3278125 108.328125 25.6478125 108.328125 27.0078125 108.328125 C26.98170898 107.64129639 26.95560547 106.95446777 26.92871094 106.24682617 C26.7083293 95.27409461 28.00154944 84.52472018 29.2578125 73.640625 C29.42671494 72.14553406 29.42671494 72.14553406 29.59902954 70.62023926 C31.14862628 56.90495245 32.92564982 43.26479249 35.171875 29.64453125 C36.20392348 23.33035382 36.84926178 16.99188978 37.41796875 10.62109375 C38.03821698 7.15838342 38.81498351 5.07173498 41.0078125 2.328125 C44.5703125 1.828125 44.5703125 1.828125 48.0078125 2.328125 C53.43028546 10.46183445 49.18772337 25.73629808 48.1953125 35.140625 C48.00988342 36.93500357 47.82499434 38.72943802 47.640625 40.52392578 C47.27089481 44.11888195 46.89865678 47.71356566 46.52490234 51.30810547 C45.94469874 56.9109078 45.39975765 62.51676902 44.85668945 68.12329102 C43.75543331 79.4233042 42.55796807 90.71183911 41.26147461 101.99102783 C41.09640309 103.43055793 40.93306273 104.87028795 40.77172852 106.3102417 C37.35193819 136.7056638 37.35193819 136.7056638 32.73046875 143.09375 C29.60704877 145.33184686 26.35324751 145.10331044 22.62890625 145 C19.30262881 144.14736256 18.20392447 142.94510529 16.0078125 140.328125 C12.30287107 130.27116911 11.56282572 118.58181832 10.0078125 108.015625 C9.51153742 104.66479894 9.0116789 101.31453677 8.5078125 97.96484375 C8.38474228 97.14503525 8.26167206 96.32522675 8.13487244 95.48057556 C7.34875448 90.32758538 6.44650968 85.20972347 5.44921875 80.09375 C3.8034727 71.54820023 2.72539499 62.98243985 1.70288086 54.34204102 C1.46736036 52.36899688 1.22022091 50.39735037 0.97265625 48.42578125 C0.834646 47.27601807 0.69663574 46.12625488 0.55444336 44.94165039 C0.37405518 44.07918701 0.19366699 43.21672363 0.0078125 42.328125 C-0.9821875 41.833125 -0.9821875 41.833125 -1.9921875 41.328125 C-2.79720328 46.89372419 -3.55194882 52.46513711 -4.296875 58.0390625 C-4.68627223 60.93316136 -5.07628104 63.82717743 -5.46630859 66.72119141 C-5.73113351 68.69108882 -5.99482682 70.66113874 -6.25732422 72.63134766 C-7.80819217 84.26187942 -9.5275411 95.82416813 -11.64068604 107.36560059 C-12.22202473 110.61136627 -12.74552969 113.86628043 -13.2734375 117.12109375 C-13.47582031 118.34763672 -13.67820312 119.57417969 -13.88671875 120.83789062 C-14.29725346 123.33155794 -14.7006748 125.82640482 -15.09765625 128.32226562 C-15.30003906 129.53462891 -15.50242187 130.74699219 -15.7109375 131.99609375 C-15.97293945 133.60907349 -15.97293945 133.60907349 -16.24023438 135.25463867 C-17.06435785 138.6231096 -18.25593672 141.3311169 -19.9921875 144.328125 C-23.075451 145.86975675 -25.60096849 145.62560035 -28.9921875 145.328125 C-31.41743405 142.75407932 -32.43733977 140.49051883 -33.1328125 137.05859375 C-33.31239502 136.19137695 -33.49197754 135.32416016 -33.67700195 134.43066406 C-33.86351318 133.46870117 -34.05002441 132.50673828 -34.2421875 131.515625 C-34.45125732 130.4750293 -34.66032715 129.43443359 -34.87573242 128.36230469 C-37.6346923 114.41284387 -40.07384401 100.4009501 -42.55522156 86.40011597 C-44.39807499 76.01615319 -46.28926792 65.64101366 -48.1796875 55.265625 C-48.50369104 53.48600787 -48.82766635 51.7063856 -49.15161133 49.92675781 C-49.38713966 48.63407486 -49.38713966 48.63407486 -49.62742615 47.3152771 C-49.93923752 45.60128082 -50.25008998 43.88710981 -50.55995178 42.17276001 C-51.38934679 37.59226542 -52.24049944 33.01703041 -53.11962891 28.44580078 C-53.30511795 27.46623917 -53.49060699 26.48667755 -53.68171692 25.47743225 C-54.03583107 23.60900572 -54.39613031 21.74173582 -54.76396179 19.8759613 C-55.81852219 14.26505801 -56.32932466 9.04125204 -55.9921875 3.328125 C-53.41227949 0.74821699 -51.48974289 1.01213662 -47.96484375 0.8671875 C-45.9921875 1.328125 -45.9921875 1.328125 -44.49023438 2.79833984 C-42.33195044 6.44308204 -41.79233867 10.12781752 -41.05078125 14.265625 C-40.8836412 15.14879395 -40.71650116 16.03196289 -40.54429626 16.94189453 C-40.19315473 18.80428993 -39.8468379 20.66760071 -39.50506592 22.53173828 C-39.0149229 25.20416389 -38.51215308 27.87384055 -38.00439453 30.54296875 C-37.17752463 34.90013154 -36.36415288 39.25966759 -35.55645752 43.62042236 C-35.04134237 46.40013935 -34.52347319 49.17933442 -34.00537109 51.95849609 C-32.43532833 60.39952453 -30.88591968 68.84253637 -29.43359375 77.3046875 C-29.26051445 78.30601715 -29.26051445 78.30601715 -29.0839386 79.32757568 C-28.55787243 82.37292783 -28.04057588 85.4192033 -27.53930664 88.46875 C-27.36133545 89.50773438 -27.18336426 90.54671875 -27 91.6171875 C-26.85191895 92.51131348 -26.70383789 93.40543945 -26.55126953 94.32666016 C-26.36677246 94.98714355 -26.18227539 95.64762695 -25.9921875 96.328125 C-25.3321875 96.658125 -24.6721875 96.988125 -23.9921875 97.328125 C-23.8571582 96.02447998 -23.72212891 94.72083496 -23.58300781 93.37768555 C-23.06535873 88.72967066 -22.34467318 84.1408086 -21.5390625 79.53515625 C-21.32822525 78.31020195 -21.32822525 78.31020195 -21.11312866 77.0605011 C-20.81321405 75.31937645 -20.51215274 73.57844898 -20.21002197 71.83770752 C-19.73600937 69.10500784 -19.26564372 66.37170368 -18.79638672 63.63818359 C-18.16354348 59.95185042 -17.52997827 56.26564331 -16.89550781 52.57958984 C-15.62677508 45.20564796 -14.36416786 37.83077771 -13.1171875 30.453125 C-12.91448242 29.27468018 -12.71177734 28.09623535 -12.50292969 26.88208008 C-11.47592793 20.78170738 -10.6836037 14.75342146 -10.28271484 8.578125 C-9.38145176 1.59825899 -6.32250101 0.23330262 0 0 Z " fill="#050505" transform="translate(422.9921875,509.671875)"/>
<path d="M0 0 C23.76 0 47.52 0 72 0 C72 26.07 72 52.14 72 79 C48.24 79 24.48 79 0 79 C0 52.93 0 26.86 0 0 Z " fill="#000000" transform="translate(527,83)"/>
<path d="M0 0 C0.88977539 0.00555908 1.77955078 0.01111816 2.69628906 0.0168457 C3.6015332 0.02176025 4.50677734 0.0266748 5.43945312 0.03173828 C16.60380362 0.22618704 26.7187863 2.0426802 35.03613281 9.9621582 C44.05244749 19.79412971 44.01687478 32.3915031 43.50048828 45.01342773 C42.31920526 60.27998191 35.43229889 72.21832676 24.32128906 82.3293457 C23.66128906 82.9893457 23.00128906 83.6493457 22.32128906 84.3293457 C22.81008545 85.38210693 23.29888184 86.43486816 23.80249023 87.51953125 C25.64251817 91.48550633 27.47693969 95.45405452 29.30981445 99.42333984 C30.09868965 101.12975834 30.88901491 102.83550735 31.6809082 104.54052734 C45.32128906 133.91781819 45.32128906 133.91781819 45.32128906 141.3293457 C44.38378906 143.2668457 44.38378906 143.2668457 42.32128906 144.3293457 C36.82609675 144.93992263 36.82609675 144.93992263 34.32128906 144.3293457 C31.06400618 141.53233105 29.48130867 138.95718005 27.91113281 134.98950195 C27.48364746 133.93561279 27.05616211 132.88172363 26.61572266 131.79589844 C26.16793457 130.67256104 25.72014648 129.54922363 25.25878906 128.3918457 C18.33648146 109.1556453 18.33648146 109.1556453 7.32128906 92.3293457 C7.31764343 92.9365596 7.3139978 93.5437735 7.3102417 94.16938782 C7.26848547 100.47985336 7.19918886 106.78958689 7.11376953 113.09960938 C7.08551452 115.45565475 7.06432266 117.81179572 7.05029297 120.16796875 C7.02892661 123.55168766 6.98230736 126.93425167 6.93066406 130.31762695 C6.92943542 131.37395828 6.92820679 132.43028961 6.92694092 133.51863098 C6.89736298 134.98981636 6.89736298 134.98981636 6.8671875 136.49072266 C6.85830505 137.35454056 6.84942261 138.21835846 6.840271 139.10835266 C6.32128906 141.3293457 6.32128906 141.3293457 4.41436768 143.1068573 C0.88372309 145.16897386 -1.6357156 144.71439288 -5.67871094 144.3293457 C-7.40141582 143.15742588 -7.40141582 143.15742588 -8.67871094 141.3293457 C-9.05344105 138.79497433 -9.05344105 138.79497433 -9.05293274 135.70506287 C-9.05994705 134.53426178 -9.06696136 133.36346069 -9.07418823 132.15718079 C-9.06654449 130.87135605 -9.05890076 129.58553131 -9.05102539 128.26074219 C-9.05345312 126.89410119 -9.05717225 125.52746195 -9.06208801 124.16082764 C-9.07150251 120.44808485 -9.06206754 116.73560542 -9.04875588 113.02288318 C-9.03745177 109.14139938 -9.04154803 105.25992875 -9.04350281 101.37843323 C-9.04438601 94.86080616 -9.03329911 88.34328305 -9.01489258 81.82568359 C-8.99371565 74.28378762 -8.99021679 66.74204389 -8.99645454 59.2001242 C-9.00214305 51.95192349 -8.99650918 44.70377654 -8.98528099 37.45558357 C-8.98062909 34.3674934 -8.97976369 31.27943604 -8.98186684 28.19134331 C-8.98374625 24.55765902 -8.97567281 20.92413037 -8.95980644 17.29048157 C-8.95351911 15.31565837 -8.95707751 13.3408116 -8.96087646 11.36598206 C-8.95379166 10.19800079 -8.94670685 9.03001953 -8.93940735 7.8266449 C-8.93735448 6.80735114 -8.93530161 5.78805738 -8.93318653 4.73787594 C-8.35508912 -0.73363151 -4.41188723 0.04980614 0 0 Z " fill="#040404" transform="translate(589.6787109375,510.670654296875)"/>
<path d="M0 0 C2.13793945 1.36962891 2.13793945 1.36962891 4 4 C4.68611617 7.49164824 4.7229534 10.97272724 4.79296875 14.5234375 C4.82905746 15.59218109 4.86514618 16.66092468 4.90232849 17.76205444 C5.01648017 21.29940893 5.10240762 24.83683631 5.1875 28.375 C5.26024128 30.84541667 5.33431582 33.3157944 5.40966797 35.78613281 C5.63738931 43.52342353 5.82261715 51.26141333 6 59 C6.02922546 60.24019897 6.05845093 61.48039795 6.08856201 62.75817871 C6.45613393 78.41348337 6.78857718 94.06939283 6.95129395 109.72827148 C7.00426889 113.2867538 7.10114707 116.84285318 7.19824219 120.40039062 C7.24496984 122.85545311 7.29088745 125.31053116 7.3359375 127.765625 C7.37643219 128.91399841 7.41692688 130.06237183 7.45864868 131.24554443 C7.56377473 139.21938884 7.56377473 139.21938884 4.67041016 143.22558594 C2 145 2 145 -1.0625 145.625 C-4 145 -4 145 -6.15917969 143.2434082 C-9.04022926 138.16718227 -8.49117451 133.21412065 -8.390625 127.48046875 C-8.38496521 126.26676102 -8.37930542 125.05305328 -8.37347412 123.80256653 C-8.35110442 119.93047456 -8.30090382 116.05931176 -8.25 112.1875 C-8.22993591 109.56056025 -8.21168499 106.93360598 -8.1953125 104.30664062 C-8.15464146 97.87044878 -8.07634447 91.43626302 -8 85 C-19.88 85.33 -31.76 85.66 -44 86 C-43.97679687 90.16367187 -43.95359375 94.32734375 -43.9296875 98.6171875 C-43.9168301 101.93228535 -43.9059829 105.24737618 -43.89649963 108.56248474 C-43.88592809 112.06465641 -43.87179578 115.56673165 -43.84912109 119.06884766 C-43.82328047 123.08497056 -43.81353534 127.10099097 -43.8046875 131.1171875 C-43.79436493 132.37554413 -43.78404236 133.63390076 -43.77340698 134.9303894 C-43.77325592 136.09144196 -43.77310486 137.25249451 -43.77294922 138.44873047 C-43.768508 139.47465302 -43.76406677 140.50057556 -43.75949097 141.55758667 C-44 144 -44 144 -46 146 C-53.30434783 146.46376812 -53.30434783 146.46376812 -57 144 C-58.73124566 139.25943548 -59.28132765 134.92377958 -59.41064453 129.90209961 C-59.43042956 129.22602472 -59.4502146 128.54994984 -59.47059917 127.85338783 C-59.53354466 125.61984478 -59.58337638 123.38622349 -59.6328125 121.15234375 C-59.67438167 119.55930421 -59.71660748 117.96628169 -59.75944519 116.37327576 C-59.87114923 112.10954047 -59.97025538 107.84560671 -60.06546402 103.5814743 C-60.12496881 100.93888534 -60.1872584 98.29637555 -60.25033569 95.65386963 C-60.76298094 74.05421972 -61.20771131 52.45131979 -61.29754639 30.84524536 C-61.30747945 28.54010625 -61.32197246 26.23498207 -61.34112549 23.92990112 C-61.36442394 20.77336537 -61.36750674 17.61754073 -61.36328125 14.4609375 C-61.37240036 13.54799423 -61.38151947 12.63505096 -61.39091492 11.69444275 C-61.36448701 8.11241001 -61.34032835 5.66317472 -59.68823242 2.44384766 C-58 1 -58 1 -54.625 0.4375 C-50.11823771 1.13682518 -48.7554181 2.43416481 -46 6 C-41.72522475 18.71959463 -43.88201533 35.23110203 -43.9375 48.4375 C-43.94252803 50.5371083 -43.94708862 52.63671777 -43.95117188 54.73632812 C-43.96120727 59.82427231 -43.98080019 64.91204962 -44 70 C-32.78 70 -21.56 70 -10 70 C-10.04640625 65.19824219 -10.0928125 60.39648438 -10.140625 55.44921875 C-10.16106019 52.40948363 -10.18031556 49.36983304 -10.1953125 46.33007812 C-10.21923608 41.503809 -10.24755463 36.67784305 -10.30175781 31.85180664 C-10.34517922 27.96144601 -10.36912917 24.07141041 -10.37950897 20.18082619 C-10.38690712 18.69560439 -10.40135403 17.21040064 -10.42292023 15.725317 C-10.45190708 13.6468075 -10.4559583 11.56964549 -10.45410156 9.4909668 C-10.46298401 8.30738083 -10.47186646 7.12379486 -10.48101807 5.90434265 C-10 3 -10 3 -8.15911865 1.12165833 C-5.19595839 -0.4176982 -3.29419573 -0.48040354 0 0 Z " fill="#050505" transform="translate(215,509)"/>
<path d="M0 0 C5.90162525 4.19560921 9.92039155 9.3188081 13.57421875 15.52734375 C14.11755859 16.44580078 14.11755859 16.44580078 14.671875 17.3828125 C18.7425297 25.9595873 17.6191707 37.68202576 14.63671875 46.40234375 C9.60592411 57.74271043 1.90431862 63.91704786 -9.42578125 68.52734375 C-16.7855054 70.98058513 -28.31708447 70.97157073 -35.55078125 67.90234375 C-37.55078125 66.78515625 -37.55078125 66.78515625 -39.42578125 65.52734375 C-40.44671875 64.87378906 -40.44671875 64.87378906 -41.48828125 64.20703125 C-49.57195433 58.60357604 -56.37779937 51.36735135 -58.42578125 41.52734375 C-59.40950728 32.01296948 -60.02760888 21.7132962 -54.42578125 13.52734375 C-53.97847656 12.83640625 -53.53117187 12.14546875 -53.0703125 11.43359375 C-40.7927041 -6.20929661 -18.57641397 -11.27746871 0 0 Z " fill="#FBFBFB" transform="translate(421.42578125,362.47265625)"/>
<path d="M0 0 C0.85231201 -0.01740234 1.70462402 -0.03480469 2.58276367 -0.05273438 C7.82528138 -0.04855249 13.55045686 0.36295686 17.5 4.3125 C17.96786632 11.33049486 17.96786632 11.33049486 15.5 14.3125 C5.00950418 19.75948821 -8.11436441 18.3125 -19.5 18.3125 C-19.5 33.8225 -19.5 49.3325 -19.5 65.3125 C-10.88423121 65.19422391 -10.88423121 65.19422391 -2.26904297 65.04223633 C-0.64699951 65.03099731 -0.64699951 65.03099731 1.0078125 65.01953125 C2.10754395 65.0038208 3.20727539 64.98811035 4.34033203 64.97192383 C8.91890837 65.46544214 12.24776255 67.06026255 15.5 70.3125 C16.01675938 74.18819534 15.81754464 75.83618304 13.625 79.125 C11.09016518 81.73438878 10.32628082 82.27896705 6.70263672 82.42602539 C5.54006348 82.42078857 4.37749023 82.41555176 3.1796875 82.41015625 C2.04772949 82.40765869 0.91577148 82.40516113 -0.25048828 82.40258789 C-1.69407715 82.39348389 -3.13766602 82.38437988 -4.625 82.375 C-9.20375 82.354375 -13.7825 82.33375 -18.5 82.3125 C-18.5 97.8225 -18.5 113.3325 -18.5 129.3125 C-6.08414172 129.23333946 -6.08414172 129.23333946 6.33154297 129.13232422 C7.88508836 129.12648442 9.43863681 129.12138765 10.9921875 129.1171875 C11.80244385 129.10695557 12.6127002 129.09672363 13.44750977 129.08618164 C15.46641636 129.08554895 17.48485274 129.18935064 19.5 129.3125 C21.90346379 131.71596379 21.82083747 132.45150195 21.875 135.75 C21.77965404 139.99289539 21.77965404 139.99289539 19.75 142.3125 C16.22530678 143.87903032 13.08338546 144.43757644 9.23803711 144.47363281 C8.40715073 144.48324036 7.57626434 144.4928479 6.72019958 144.50274658 C5.83155716 144.50699646 4.94291473 144.51124634 4.02734375 144.515625 C3.10788467 144.52132507 2.1884256 144.52702515 1.24110413 144.53289795 C-0.6996852 144.5423304 -2.64049042 144.54887495 -4.58129883 144.55273438 C-7.55513093 144.56247586 -10.52828208 144.59352998 -13.50195312 144.625 C-15.38801673 144.6315269 -17.27408527 144.6367786 -19.16015625 144.640625 C-20.05082291 144.6529718 -20.94148956 144.6653186 -21.85914612 144.67803955 C-22.68688034 144.67503845 -23.51461456 144.67203735 -24.36743164 144.66894531 C-25.45852989 144.67441376 -25.45852989 144.67441376 -26.57167053 144.67999268 C-29.08461916 144.20108581 -29.93887795 143.30574198 -31.5 141.3125 C-32.37458845 138.68873464 -32.66592415 136.9883054 -32.78125 134.28662109 C-32.81801849 133.46761322 -32.85478699 132.64860535 -32.89266968 131.80477905 C-32.94579819 130.45895248 -32.94579819 130.45895248 -33 129.0859375 C-33.06050034 127.65974594 -33.06050034 127.65974594 -33.1222229 126.20474243 C-33.2539989 123.03253533 -33.37772812 119.86008697 -33.5 116.6875 C-33.56486603 115.0478125 -33.56486603 115.0478125 -33.63104248 113.375 C-34.34950819 95.02475538 -34.80828305 76.67379696 -35.125 58.3125 C-35.14546387 57.14853699 -35.16592773 55.98457397 -35.18701172 54.78533936 C-35.4036491 42.12838971 -35.54230098 29.47126626 -35.5859375 16.8125 C-35.59291656 15.70165039 -35.59989563 14.59080078 -35.60708618 13.44628906 C-35.60832489 12.42245117 -35.6095636 11.39861328 -35.61083984 10.34375 C-35.61368988 9.44205078 -35.61653992 8.54035156 -35.61947632 7.61132812 C-35.5 5.3125 -35.5 5.3125 -34.5 2.3125 C-23.01656539 1.12678768 -11.55039763 0.1080739 0 0 Z " fill="#060606" transform="translate(280.5,509.6875)"/>
<path d="M0 0 C7.25306085 3.62653042 10.57748566 9.31974735 13.1875 16.6875 C17.13453453 28.56219536 17.36948602 40.57106478 17.3125 52.9375 C17.31067719 53.75404053 17.30885437 54.57058105 17.30697632 55.41186523 C17.14329572 98.95623629 17.14329572 98.95623629 4.66796875 111.81640625 C1.59381307 113.99783288 -1.293937 114.49018068 -5 114 C-11.27830437 111.16860783 -14.26408342 106.01804829 -16.90625 99.90234375 C-21.26368673 87.89760557 -21.34524757 75.47841035 -21.31567383 62.87670898 C-21.31254121 60.09903646 -21.33594559 57.32246139 -21.36132812 54.54492188 C-21.4983543 15.49916206 -21.4983543 15.49916206 -12.43359375 4.015625 C-8.55676762 0.23420175 -5.50081636 -1.00014843 0 0 Z " fill="#FCFCFC" transform="translate(528,525)"/>
<path d="M0 0 C1.90825981 0.10793282 3.81568998 0.23059361 5.72265625 0.359375 C7.31605835 0.45943848 7.31605835 0.45943848 8.94165039 0.56152344 C15.82170051 1.54791843 20.44198075 6.02244388 25 11 C35.97879109 28.74531132 38.09734907 50.8878495 33.81640625 71.21484375 C29.43143955 86.17408422 22.02620824 101.23894394 8.2734375 109.671875 C1.78546348 113 1.78546348 113 -1 113 C-1.12188995 84.59776703 -0.98689378 56.21025053 -0.5 27.8125 C-0.48206327 26.76590839 -0.48206327 26.76590839 -0.46376419 25.69817352 C-0.31630568 17.1319841 -0.16174279 8.56593181 0 0 Z " fill="#FCFCFC" transform="translate(738,526)"/>
<path d="M0 0 C1.74023438 0.00640503 1.74023438 0.00640503 3.515625 0.01293945 C4.75441406 0.03445068 5.99320313 0.05596191 7.26953125 0.078125 C8.54570313 0.09125732 9.821875 0.10438965 11.13671875 0.11791992 C15.1192681 0.1682915 19.1000327 0.24546221 23.08203125 0.328125 C24.34354004 0.34891113 25.60504883 0.36969727 26.90478516 0.39111328 C30.46467285 0.45459034 34.02296086 0.54195267 37.58203125 0.640625 C38.66637451 0.66286133 39.75071777 0.68509766 40.86791992 0.70800781 C50.2506647 1.04061769 50.2506647 1.04061769 54.08203125 4.328125 C55.48138138 7.12682527 55.3346853 9.23311292 55.08203125 12.328125 C53.89916992 14.0012207 53.89916992 14.0012207 52.08203125 15.328125 C49.63012695 15.66870117 49.63012695 15.66870117 46.7578125 15.62109375 C45.72978516 15.61142578 44.70175781 15.60175781 43.64257812 15.59179688 C42.03479492 15.5540918 42.03479492 15.5540918 40.39453125 15.515625 C39.31107422 15.50208984 38.22761719 15.48855469 37.11132812 15.47460938 C34.4343972 15.43923143 31.75846287 15.38986689 29.08203125 15.328125 C29.0977417 16.858927 29.0977417 16.858927 29.11376953 18.4206543 C29.35688729 45.00191396 29.0129647 71.56757794 28.39031982 98.14102173 C28.308413 101.64106113 28.23309084 105.14114563 28.16339111 108.64144897 C28.07941402 112.82462009 27.98081666 117.00720313 27.87115288 121.18977737 C27.83244041 122.74810296 27.79848348 124.30655487 27.76957893 125.86509323 C27.72854917 128.01879965 27.66959384 130.17131449 27.60620117 132.32446289 C27.57733322 133.53727432 27.54846527 134.75008575 27.51872253 135.99964905 C27.03479071 139.68819405 26.01695374 142.16467444 24.08203125 145.328125 C21.92578125 146.23828125 21.92578125 146.23828125 19.58203125 146.390625 C18.80859375 146.46410156 18.03515625 146.53757812 17.23828125 146.61328125 C15.08203125 146.328125 15.08203125 146.328125 13.36328125 145.01171875 C10.92272567 141.8047692 10.95860181 138.84980522 10.96679688 134.97436523 C10.96740112 133.83886734 10.96800537 132.70336945 10.96862793 131.53346252 C10.97511353 130.26816208 10.98159912 129.00286163 10.98828125 127.69921875 C10.99210247 126.33654331 10.99571695 124.97386728 10.99914551 123.6111908 C11.06490691 103.61509999 11.3189386 83.61944546 11.54559326 63.62469482 C11.60717122 58.15931555 11.66677095 52.69391468 11.7265625 47.22851562 C11.84317185 36.59503071 11.96188642 25.96157052 12.08203125 15.328125 C11.45635254 15.33859863 10.83067383 15.34907227 10.18603516 15.35986328 C7.35974115 15.40135691 4.53351114 15.42742973 1.70703125 15.453125 C0.7221875 15.46988281 -0.26265625 15.48664062 -1.27734375 15.50390625 C-2.21835938 15.51035156 -3.159375 15.51679687 -4.12890625 15.5234375 C-5.43287354 15.53914795 -5.43287354 15.53914795 -6.76318359 15.55517578 C-8.91796875 15.328125 -8.91796875 15.328125 -10.91796875 13.328125 C-11.2890625 11.05078125 -11.2890625 11.05078125 -11.35546875 8.390625 C-11.39542969 7.51535156 -11.43539062 6.64007812 -11.4765625 5.73828125 C-10.91796875 3.328125 -10.91796875 3.328125 -8.75292969 1.69799805 C-5.54865249 0.14966879 -3.54058424 -0.03233665 0 0 Z " fill="#030303" transform="translate(83.91796875,509.671875)"/>
<path d="M0 0 C1.14807129 0.00241699 1.14807129 0.00241699 2.31933594 0.00488281 C10.54040945 0.18307013 16.89172557 2.56770423 22.875 8.375 C27.75942546 15.17830689 27.63221061 23.28620898 26.875 31.375 C24.64138918 40.91960038 20.30946029 47.10672956 12.875 53.375 C14.84583958 60.07525094 17.58759001 66.01031713 20.9375 72.125 C28.20875294 85.5343236 28.20875294 85.5343236 27.875 91.375 C25.00029507 92.81235246 23.05605412 92.75672649 19.875 92.375 C16.27074237 88.60461426 14.16376396 84.27370582 11.9375 79.625 C11.23975272 78.19849806 10.54054082 76.77271156 9.83984375 75.34765625 C9.50452637 74.66461426 9.16920898 73.98157227 8.82373047 73.27783203 C6.43207859 68.4809883 3.84750597 63.83375895 0.875 59.375 C0.85518066 60.3036084 0.83536133 61.2322168 0.81494141 62.18896484 C0.73691387 65.6295052 0.65022538 69.06959891 0.55761719 72.50976562 C0.51930002 73.99958889 0.48445192 75.48950554 0.453125 76.97949219 C0.40753271 79.11948048 0.34953126 81.25882436 0.2890625 83.3984375 C0.2576416 84.68669434 0.2262207 85.97495117 0.19384766 87.30224609 C-0.125 90.375 -0.125 90.375 -2.125 92.375 C-5.625 92.6875 -5.625 92.6875 -9.125 92.375 C-11.66459527 88.56560709 -11.4133356 85.49421354 -11.3996582 81.07983398 C-11.40476913 80.23404785 -11.40988007 79.38826172 -11.41514587 78.5168457 C-11.42905858 75.71818998 -11.42808421 72.91977996 -11.42578125 70.12109375 C-11.42966652 68.17961027 -11.43400084 66.23812764 -11.43876648 64.29664612 C-11.44623176 60.2271143 -11.44593464 56.15766923 -11.44067383 52.08813477 C-11.43487093 46.863286 -11.4518285 41.63879077 -11.4750185 36.41400051 C-11.48971978 32.40523693 -11.49063261 28.39655927 -11.48750877 24.38777351 C-11.48802355 22.46077841 -11.49329034 20.53377868 -11.50332069 18.60680962 C-11.51560166 15.91789325 -11.50894466 13.22967592 -11.49731445 10.54077148 C-11.50495819 9.73916092 -11.51260193 8.93755035 -11.52047729 8.11164856 C-11.4992218 5.8981781 -11.4992218 5.8981781 -11.125 2.375 C-7.37743107 -0.12337929 -4.34759016 -0.00934162 0 0 Z " fill="#060606" transform="translate(554.125,407.625)"/>
<path d="M0 0 C0.86625 -0.00773437 1.7325 -0.01546875 2.625 -0.0234375 C5.52228297 0.46261984 6.23649186 1.05890505 8 3.375 C8.35644531 5.74291992 8.35644531 5.74291992 8.328125 8.60546875 C8.32361328 9.69553223 8.31910156 10.7855957 8.31445312 11.90869141 C8.29318359 13.11444824 8.27191406 14.32020508 8.25 15.5625 C8.23904297 16.85075684 8.22808594 18.13901367 8.21679688 19.46630859 C8.14674239 26.68646093 7.96925559 33.90363057 7.765625 41.12109375 C7.74441086 41.87374008 7.72319672 42.62638641 7.70133972 43.40184021 C7.67961197 44.1694014 7.65788422 44.93696259 7.63549805 45.7277832 C7.6133725 46.50948883 7.59124695 47.29119446 7.56845093 48.09658813 C7.52269827 49.7030307 7.47632871 51.30945581 7.42935181 52.91586304 C6.93787311 70.06798177 6.9156047 87.21751766 6.9375 104.375 C6.93878403 105.38480801 6.93878403 105.38480801 6.94009399 106.41501617 C6.9514795 114.73503736 6.97159075 123.05502015 7 131.375 C7.95890137 131.39481934 8.91780273 131.41463867 9.90576172 131.43505859 C13.45811553 131.51104145 17.01005576 131.5997693 20.56201172 131.69238281 C22.10034021 131.73070301 23.63875925 131.76555056 25.17724609 131.796875 C27.38672276 131.84246059 29.59557448 131.9004634 31.8046875 131.9609375 C32.49432587 131.97248871 33.18396423 131.98403992 33.89450073 131.99594116 C38.77225659 132.14725659 38.77225659 132.14725659 41 134.375 C41.5412844 140.05848624 41.5412844 140.05848624 41 142.375 C39.20615303 144.3706357 37.70307061 145.27446699 35.03448486 145.65605164 C32.52737803 145.77301108 30.03715369 145.79058872 27.52734375 145.7734375 C26.60788467 145.77630768 25.6884256 145.77917786 24.74110413 145.78213501 C22.80029686 145.78417392 20.85946897 145.77865615 18.91870117 145.76611328 C15.94468403 145.75003883 12.97202212 145.76597724 9.99804688 145.78515625 C8.11197616 145.78317415 6.2259063 145.77933115 4.33984375 145.7734375 C3.44917709 145.77951019 2.55851044 145.78558289 1.64085388 145.7918396 C0.81311966 145.78238312 -0.01461456 145.77292664 -0.86743164 145.76318359 C-1.95852989 145.75960342 -1.95852989 145.75960342 -3.07167053 145.75595093 C-5.65110711 145.2463706 -6.40217818 144.45559811 -8 142.375 C-8.37752342 139.84342194 -8.37752342 139.84342194 -8.38095093 136.75744629 C-8.3894104 135.58809036 -8.39786987 134.41873444 -8.40658569 133.21394348 C-8.400513 131.92968979 -8.39444031 130.6454361 -8.38818359 129.32226562 C-8.39224831 127.95724568 -8.39758963 126.59222903 -8.40411377 125.22721863 C-8.41780525 121.51855358 -8.4124813 117.81013853 -8.40297651 114.10146904 C-8.39538934 110.22311598 -8.4024229 106.34478455 -8.40713501 102.46643066 C-8.41259532 95.95300446 -8.40539376 89.43968025 -8.39111328 82.92626953 C-8.37478618 75.39230567 -8.3800745 67.85858536 -8.3965925 60.3246274 C-8.41019955 53.86000878 -8.41213087 47.39546355 -8.40427649 40.93083525 C-8.39959565 37.0680921 -8.39898632 33.20546348 -8.40888596 29.34272766 C-8.41754207 25.71145012 -8.41155891 22.08048705 -8.39420319 18.44924355 C-8.38833383 16.47818562 -8.39726546 14.50710115 -8.40658569 12.53605652 C-8.39812622 11.36670059 -8.38966675 10.19734467 -8.38095093 8.99255371 C-8.37981985 7.97418175 -8.37868877 6.95580978 -8.37752342 5.90657806 C-8 3.375 -8 3.375 -6.62462807 1.54880524 C-4.37140767 -0.07916239 -2.75534464 -0.02460129 0 0 Z " fill="#030303" transform="translate(664,509.625)"/>
<path d="M0 0 C5.96656028 4.27791114 6.75079152 10.11516281 8.3125 17 C8.6002832 18.20736816 8.88806641 19.41473633 9.18457031 20.65869141 C12.54958866 34.95911966 15.64281183 49.32906696 18.66142273 63.70623779 C19.38693744 67.15790139 20.13240185 70.60162554 20.93554688 74.03613281 C21.21978516 75.27459961 21.50402344 76.51306641 21.796875 77.7890625 C22.05307617 78.8713916 22.30927734 79.9537207 22.57324219 81.06884766 C23.01374666 84.09441783 22.90975263 86.09374001 22 89 C20 91 20 91 17.5625 91.3125 C14.48368905 90.93703525 13.89903548 90.38208028 12 88 C11.29223633 85.82348633 11.29223633 85.82348633 10.83203125 83.33203125 C10.57583008 81.99301758 10.57583008 81.99301758 10.31445312 80.62695312 C10.14880859 79.69818359 9.98316406 78.76941406 9.8125 77.8125 C9.54663086 76.40194336 9.54663086 76.40194336 9.27539062 74.96289062 C8.83983676 72.64386059 8.41854133 70.32216076 8 68 C2.06 67.67 -3.88 67.34 -10 67 C-10.12117187 68.38574219 -10.24234375 69.77148438 -10.3671875 71.19921875 C-10.53606108 73.02868255 -10.70535393 74.85810767 -10.875 76.6875 C-10.95363281 77.59951172 -11.03226563 78.51152344 -11.11328125 79.45117188 C-12.1221762 90.1221762 -12.1221762 90.1221762 -15 93 C-18.5 93.125 -18.5 93.125 -22 93 C-23 92 -23 92 -23.0546875 89.45703125 C-22.39511944 76.07927029 -19.9328736 63.02321246 -17.65087891 49.84326172 C-16.6559365 43.96839926 -15.7637921 38.07918372 -14.875 32.1875 C-14.55012638 30.07542118 -14.22462726 27.96343846 -13.8984375 25.8515625 C-13.45741656 22.99564891 -13.02041124 20.13966903 -12.60253906 17.28027344 C-12.25009383 14.87174512 -11.87768686 12.46717621 -11.5 10.0625 C-11.4057373 9.37631592 -11.31147461 8.69013184 -11.21435547 7.9831543 C-10.72112851 4.96477729 -10.28073313 3.28073313 -8.08984375 1.08984375 C-5.11598485 -0.46100977 -3.30913091 -0.54026627 0 0 Z " fill="#070707" transform="translate(616,407)"/>
<path d="M0 0 C1.97420272 2.96130408 2.87157495 5.32178869 3.9453125 8.69140625 C4.47705078 10.35526367 4.47705078 10.35526367 5.01953125 12.05273438 C5.38433594 13.21095703 5.74914062 14.36917969 6.125 15.5625 C6.49753906 16.72458984 6.87007812 17.88667969 7.25390625 19.08398438 C10 27.72965316 10 27.72965316 10 30 C20.56 30 31.12 30 42 30 C39.25309212 32.74690788 37.1319701 34.74982107 34.03125 36.875 C33.29519531 37.38546875 32.55914062 37.8959375 31.80078125 38.421875 C29.5 40 29.5 40 27.19921875 41.578125 C26.46316406 42.08859375 25.72710937 42.5990625 24.96875 43.125 C23.97004883 43.80949219 23.97004883 43.80949219 22.95117188 44.5078125 C20.7712051 46.17497428 18.90125315 48.02456195 17 50 C17.24234375 50.70608398 17.4846875 51.41216797 17.734375 52.13964844 C18.82920958 55.34098687 19.91469561 58.5454188 21 61.75 C21.3815625 62.86117187 21.763125 63.97234375 22.15625 65.1171875 C22.5171875 66.18710937 22.878125 67.25703125 23.25 68.359375 C23.75273437 69.83615723 23.75273437 69.83615723 24.265625 71.34277344 C25 74 25 74 25 78 C21.00872817 76.22831325 17.58362193 73.67029994 14.0625 71.125 C13.15081055 70.47337891 13.15081055 70.47337891 12.22070312 69.80859375 C9.46533467 67.82900865 6.85390753 65.87065833 4.30859375 63.6171875 C2.20750683 61.76365422 2.20750683 61.76365422 0.11523438 62.22167969 C-2.32001077 63.11775096 -4.06843986 64.28994654 -6.15234375 65.8359375 C-7.31733398 66.69058594 -7.31733398 66.69058594 -8.50585938 67.5625 C-9.30830078 68.160625 -10.11074219 68.75875 -10.9375 69.375 C-20.65822345 76.56158812 -20.65822345 76.56158812 -25 79 C-23.36559954 69.0301572 -20.13564949 59.57803752 -17 50 C-21.26640386 45.37806249 -26.11165657 41.91341845 -31.25 38.3125 C-32.88294033 37.1666439 -34.51329203 36.017087 -36.140625 34.86328125 C-36.85766602 34.36094971 -37.57470703 33.85861816 -38.31347656 33.34106445 C-40 32 -40 32 -41 30 C-30.44 30 -19.88 30 -9 30 C-8.67 27.69 -8.34 25.38 -8 23 C-7.51507145 21.16680376 -6.98509408 19.34480437 -6.40625 17.5390625 C-6.09816406 16.57355469 -5.79007813 15.60804688 -5.47265625 14.61328125 C-5.15167969 13.62714844 -4.83070312 12.64101563 -4.5 11.625 C-4.17902344 10.61566406 -3.85804687 9.60632813 -3.52734375 8.56640625 C-1.13778832 1.13778832 -1.13778832 1.13778832 0 0 Z " fill="#070707" transform="translate(110,402)"/>
<path d="M0 0 C2 1 2 1 2.9296875 3.484375 C3.24164063 4.56203125 3.55359375 5.6396875 3.875 6.75 C4.21789062 7.91789062 4.56078125 9.08578125 4.9140625 10.2890625 C5.45160156 12.12597656 5.45160156 12.12597656 6 14 C7.08338232 17.4417656 8.17263197 20.88158829 9.265625 24.3203125 C10 27 10 27 10 30 C20.56 30 31.12 30 42 30 C37.45502496 34.54497504 32.99603399 38.10170192 27.8125 41.8125 C26.58370117 42.7087207 26.58370117 42.7087207 25.33007812 43.62304688 C24.54697266 44.18701172 23.76386719 44.75097656 22.95703125 45.33203125 C22.24522705 45.84483643 21.53342285 46.3576416 20.80004883 46.88598633 C19 48 19 48 17 48 C17.27787354 48.83249268 17.55574707 49.66498535 17.84204102 50.52270508 C18.86856309 53.61219355 19.88704807 56.7041819 20.90014648 59.7980957 C21.34029769 61.13671995 21.78363892 62.47429965 22.23022461 63.81079102 C22.87149885 65.73176045 23.50037787 67.65685378 24.12890625 69.58203125 C24.51119385 70.73936768 24.89348145 71.8967041 25.28735352 73.08911133 C26 76 26 76 25 79 C24.55197021 78.66266846 24.10394043 78.32533691 23.64233398 77.9777832 C21.57471476 76.42181123 19.50611361 74.8671497 17.4375 73.3125 C16.73302734 72.78205078 16.02855469 72.25160156 15.30273438 71.70507812 C13.8924378 70.64573093 12.4775507 69.59246705 11.05810547 68.54541016 C9.71086715 67.5337828 8.38538772 66.492345 7.08642578 65.41943359 C5.11472242 63.779815 5.11472242 63.779815 2 62 C-1.58091807 63.01466519 -4.31747911 64.76588196 -7.28515625 66.96875 C-8.06310547 67.53980469 -8.84105469 68.11085938 -9.64257812 68.69921875 C-10.44115234 69.29347656 -11.23972656 69.88773437 -12.0625 70.5 C-13.65556857 71.67976644 -15.25055439 72.85694938 -16.84765625 74.03125 C-17.54898682 74.55267578 -18.25031738 75.07410156 -18.97290039 75.61132812 C-20.92047444 76.94552073 -22.8644702 78.00068349 -25 79 C-23.67451522 73.91358687 -22.28866637 68.85475196 -20.6875 63.84765625 C-20.4608667 63.13867188 -20.2342334 62.4296875 -20.00073242 61.69921875 C-19.54766866 60.2926157 -19.08962321 58.88760593 -18.6262207 57.484375 C-17.53869452 54.1081743 -17 51.59171126 -17 48 C-18.44839809 46.42623535 -18.44839809 46.42623535 -20.47265625 45.16015625 C-21.20806641 44.65419922 -21.94347656 44.14824219 -22.70117188 43.62695312 C-23.48041016 43.11068359 -24.25964844 42.59441406 -25.0625 42.0625 C-26.57427171 41.03262981 -28.08599101 40.0026827 -29.59765625 38.97265625 C-30.33387207 38.47652832 -31.07008789 37.98040039 -31.82861328 37.46923828 C-34.93258955 35.3689764 -37.99040231 33.23421661 -41 31 C-41 30.67 -41 30.34 -41 30 C-30.44 30 -19.88 30 -9 30 C-7.515 24.555 -7.515 24.555 -6 19 C-4.95536006 15.59665966 -3.8993927 12.20199501 -2.8125 8.8125 C-2.53986328 7.95591797 -2.26722656 7.09933594 -1.98632812 6.21679688 C-1.32623941 4.14388671 -0.66342023 2.07184634 0 0 Z " fill="#070707" transform="translate(197,402)"/>
<path d="M0 0 C1.97420272 2.96130408 2.87157495 5.32178869 3.9453125 8.69140625 C4.47705078 10.35526367 4.47705078 10.35526367 5.01953125 12.05273438 C5.38433594 13.21095703 5.74914062 14.36917969 6.125 15.5625 C6.49753906 16.72458984 6.87007813 17.88667969 7.25390625 19.08398438 C10 27.72965316 10 27.72965316 10 30 C20.56 30 31.12 30 42 30 C37.50052029 34.49947971 37.50052029 34.49947971 34.79296875 36.40234375 C34.20580078 36.81806641 33.61863281 37.23378906 33.01367188 37.66210938 C32.41103516 38.08298828 31.80839844 38.50386719 31.1875 38.9375 C30.59646484 39.35451172 30.00542969 39.77152344 29.39648438 40.20117188 C28.20719587 41.04028819 27.0169351 41.87802828 25.82568359 42.71435547 C22.87258205 44.79392657 19.93703658 46.89781889 17 49 C17.27787354 49.80219971 17.55574707 50.60439941 17.84204102 51.4309082 C18.86864425 54.40846744 19.8871158 57.38864807 20.90014648 60.37084961 C21.34026227 61.66102315 21.783603 62.95010124 22.23022461 64.23803711 C22.87159237 66.08937119 23.50042604 67.94503259 24.12890625 69.80078125 C24.51119385 70.91622314 24.89348145 72.03166504 25.28735352 73.1809082 C26 76 26 76 25 79 C21.91645852 76.72944919 18.83320344 74.45850979 15.75 72.1875 C14.87730469 71.54490234 14.00460937 70.90230469 13.10546875 70.24023438 C12.26113281 69.61826172 11.41679687 68.99628906 10.546875 68.35546875 C9.77182617 67.78465576 8.99677734 67.21384277 8.19824219 66.62573242 C6 65 6 65 3.96582031 63.2277832 C2.10337644 61.79766932 2.10337644 61.79766932 0.00952148 62.13525391 C-2.30262036 63.13022492 -4.12967998 64.3353789 -6.15234375 65.8359375 C-7.31733398 66.69058594 -7.31733398 66.69058594 -8.50585938 67.5625 C-9.30830078 68.160625 -10.11074219 68.75875 -10.9375 69.375 C-20.65822345 76.56158812 -20.65822345 76.56158812 -25 79 C-23.74183401 71.71056271 -21.7885101 64.86044388 -19.375 57.875 C-19.05015625 56.91851562 -18.7253125 55.96203125 -18.390625 54.9765625 C-17.59928341 52.64908723 -16.80235801 50.3236955 -16 48 C-16.57814453 47.72526855 -17.15628906 47.45053711 -17.75195312 47.16748047 C-21.57384867 45.18265157 -24.99039761 42.60972699 -28.5 40.125 C-29.25925781 39.59519531 -30.01851562 39.06539063 -30.80078125 38.51953125 C-31.90486328 37.74029297 -31.90486328 37.74029297 -33.03125 36.9453125 C-33.69705078 36.47625488 -34.36285156 36.00719727 -35.04882812 35.52392578 C-37 34 -37 34 -41 30 C-30.44 30 -19.88 30 -9 30 C-8.34 27.03 -7.68 24.06 -7 21 C-6.4590329 19.16523765 -5.88857671 17.33858698 -5.2734375 15.52734375 C-4.9640625 14.60888672 -4.6546875 13.69042969 -4.3359375 12.74414062 C-3.86027344 11.35485352 -3.86027344 11.35485352 -3.375 9.9375 C-3.05015625 8.97650391 -2.7253125 8.01550781 -2.390625 7.02539062 C-1.59788808 4.68215356 -0.80095424 2.34043824 0 0 Z " fill="#070707" transform="translate(285,402)"/>
<path d="M0 0 C5.28311696 0.45940147 5.28311696 0.45940147 7.59448242 2.20239258 C9.43314684 4.55397954 9.91564408 6.61010228 10.61328125 9.51171875 C10.88906006 10.64738281 11.16483887 11.78304688 11.44897461 12.953125 C11.87641968 14.80164063 11.87641968 14.80164063 12.3125 16.6875 C12.6122876 17.95722656 12.9120752 19.22695313 13.22094727 20.53515625 C15.53790041 30.47491507 17.54798908 40.47107967 19.4375 50.5 C19.63456039 51.53935196 19.63456039 51.53935196 19.83560181 52.59970093 C22.16072143 64.9464002 22.16072143 64.9464002 22 70 C22.99 70 23.98 70 25 70 C25.0767395 68.62702759 25.0767395 68.62702759 25.1550293 67.22631836 C25.6971399 58.27892287 26.58862145 49.4467107 27.8125 40.5625 C27.98628174 39.28221924 28.16006348 38.00193848 28.33911133 36.68286133 C29.51410355 28.16667391 30.79192224 19.67030947 32.1875 11.1875 C32.35419189 10.16793213 32.52088379 9.14836426 32.69262695 8.09790039 C32.84948975 7.17227295 33.00635254 6.24664551 33.16796875 5.29296875 C33.30485107 4.4836792 33.4417334 3.67438965 33.58276367 2.84057617 C34 1 34 1 35 0 C38.4375 -0.1875 38.4375 -0.1875 42 0 C44 2 44 2 44.28540039 4.0324707 C44.28459245 12.57321717 42.91848579 20.80542697 41.4375 29.1875 C41.16823479 30.74403192 40.89961278 32.30067523 40.6315918 33.85742188 C40.06140857 37.16146418 39.48560207 40.46447268 38.90722656 43.76708984 C38.12020662 48.279941 37.36251353 52.79725286 36.61308289 57.31648254 C36.00324843 60.9872049 35.38382886 64.65627318 34.76272583 68.32510376 C34.46367485 70.1018351 34.16813568 71.87916127 33.87619019 73.65707397 C33.46584435 76.14831493 33.04128812 78.63674123 32.61328125 81.125 C32.49467743 81.8650679 32.37607361 82.6051358 32.25387573 83.36763 C31.56495536 87.27912463 30.83154278 90.13389848 28 93 C26.0625 93.49609375 26.0625 93.49609375 24 93.4375 C22.9790625 93.43556641 22.9790625 93.43556641 21.9375 93.43359375 C19.31207265 92.84604852 18.58298853 92.19490007 17 90 C16.09500179 87.52854309 15.35592819 85.1609451 14.6875 82.625 C14.47947754 81.85913574 14.27145508 81.09327148 14.05712891 80.30419922 C11.72801219 71.43570544 9.93582416 62.44504907 8.14331055 53.45556641 C6.82949342 46.87794071 5.36705093 40.37825306 3.70507812 33.88037109 C2.56008088 29.20285119 1.67224434 24.48695716 0.8125 19.75 C0.63525391 18.821875 0.45800781 17.89375 0.27539062 16.9375 C-0.71247807 11.53664259 -1.28472909 6.49210775 -1 1 C-0.67 0.67 -0.34 0.34 0 0 Z " fill="#070707" transform="translate(642,407)"/>
<path d="M0 0 C1.04693527 -0.00287018 1.04693527 -0.00287018 2.11502075 -0.00579834 C3.59279744 -0.0071601 5.0705861 -0.00346426 6.54833984 0.00488281 C8.80463777 0.01555089 11.06013368 0.00500443 13.31640625 -0.0078125 C14.75260592 -0.00649027 16.18880509 -0.00392657 17.625 0 C18.93194824 0.00225586 20.23889648 0.00451172 21.58544922 0.00683594 C24.67533432 0.24483028 26.3702661 0.62392083 28.9453125 2.265625 C28.1953125 7.015625 28.1953125 7.015625 25.9453125 9.265625 C23.60786956 9.73369145 21.24792171 10.09232294 18.8828125 10.390625 C17.61308594 10.55820312 16.34335937 10.72578125 15.03515625 10.8984375 C10.68764506 11.28875847 6.3103101 11.265625 1.9453125 11.265625 C1.9453125 21.165625 1.9453125 31.065625 1.9453125 41.265625 C8.34755689 41.14728148 8.34755689 41.14728148 14.74902344 40.99536133 C15.95220215 40.98412231 15.95220215 40.98412231 17.1796875 40.97265625 C17.99663086 40.9569458 18.81357422 40.94123535 19.65527344 40.92504883 C22.52596264 41.35197969 23.8819193 42.2465144 25.9453125 44.265625 C26.1953125 47.453125 26.1953125 47.453125 25.9453125 50.265625 C22.95404931 51.98768688 20.83845537 52.50742423 17.3984375 52.4609375 C16.63692383 52.45594238 15.87541016 52.45094727 15.09082031 52.44580078 C14.13530273 52.42759277 13.17978516 52.40938477 12.1953125 52.390625 C7.6165625 52.32875 7.6165625 52.32875 2.9453125 52.265625 C2.9453125 62.165625 2.9453125 72.065625 2.9453125 82.265625 C11.78604113 82.22603099 11.78604113 82.22603099 20.62670898 82.17553711 C22.26748413 82.17179077 22.26748413 82.17179077 23.94140625 82.16796875 C25.06732178 82.16273193 26.1932373 82.15749512 27.35327148 82.15209961 C29.9453125 82.265625 29.9453125 82.265625 30.9453125 83.265625 C30.98624187 85.59859933 30.98772973 87.93267725 30.9453125 90.265625 C26.77229785 92.2673998 23.35060596 92.52300505 18.74609375 92.53125 C18.06983444 92.53316345 17.39357513 92.5350769 16.69682312 92.53704834 C15.27566147 92.53840313 13.85448715 92.53475624 12.43334961 92.52636719 C10.2541147 92.51560674 8.0756947 92.52631141 5.89648438 92.5390625 C4.51301901 92.53774176 3.12955416 92.53518114 1.74609375 92.53125 C0.48966064 92.52899414 -0.76677246 92.52673828 -2.0612793 92.52441406 C-5.0546875 92.265625 -5.0546875 92.265625 -7.0546875 90.265625 C-7.37508199 87.64989539 -7.5722685 85.12683408 -7.6875 82.5 C-7.7501152 81.29183624 -7.7501152 81.29183624 -7.81399536 80.05926514 C-7.9477648 77.37847088 -8.06500827 74.69730009 -8.1796875 72.015625 C-8.24222717 70.64168579 -8.24222717 70.64168579 -8.30603027 69.23999023 C-9.00129318 53.75111489 -9.26753903 38.26912614 -9.3046875 22.765625 C-9.30986389 21.74819214 -9.31504028 20.73075928 -9.32037354 19.68249512 C-9.33198349 16.80380857 -9.32899039 13.92556386 -9.3203125 11.046875 C-9.32427032 10.18423035 -9.32822815 9.32158569 -9.33230591 8.43280029 C-9.27015582 0.56401489 -7.56258698 0.01307598 0 0 Z " fill="#0A0A0A" transform="translate(709.0546875,407.734375)"/>
<path d="M0 0 C0.87456848 -0.00570007 1.74913696 -0.01140015 2.65020752 -0.01727295 C4.50637598 -0.02674003 6.36256138 -0.03326368 8.21875 -0.03710938 C11.05238501 -0.04678709 13.88528629 -0.07778237 16.71875 -0.109375 C18.52082902 -0.11590761 20.32291324 -0.12115707 22.125 -0.125 C22.97100769 -0.1373468 23.81701538 -0.1496936 24.68865967 -0.16241455 C29.34297987 -0.14489368 32.61383076 0.05595555 36.328125 3.203125 C36.640625 5.890625 36.640625 5.890625 36.328125 8.203125 C33.13987932 9.79724784 29.69915838 9.30487235 26.203125 9.265625 C25.07197266 9.25885742 25.07197266 9.25885742 23.91796875 9.25195312 C22.05465373 9.24015999 20.19137945 9.22222442 18.328125 9.203125 C18.33598022 11.12499634 18.33598022 11.12499634 18.34399414 13.08569336 C18.50375778 56.17470764 18.50375778 56.17470764 18.06466675 74.40505981 C18.03209388 75.80686895 18.00448852 77.20880273 17.98196411 78.61080933 C17.94928741 80.53381422 17.89518064 82.45641999 17.83984375 84.37890625 C17.81365967 85.44020752 17.78747559 86.50150879 17.76049805 87.5949707 C17.328125 90.203125 17.328125 90.203125 15.98754883 92.04760742 C13.43250111 93.82678071 11.34764748 93.5243508 8.328125 93.203125 C5.8161391 90.6911391 6.09288362 89.17679659 6.07928467 85.75045776 C6.08647522 84.99088776 6.09366577 84.23131775 6.10107422 83.44873047 C6.10078217 82.64864563 6.10049011 81.84856079 6.10018921 81.02423096 C6.10158544 78.37281547 6.1171603 75.72167906 6.1328125 73.0703125 C6.13654159 71.23471226 6.13938905 69.39911002 6.14138794 67.56350708 C6.1490326 62.72685268 6.1686882 57.89031797 6.1907959 53.05371094 C6.21123643 48.12045918 6.22038581 43.18718813 6.23046875 38.25390625 C6.25193333 28.57025985 6.28607928 18.88670237 6.328125 9.203125 C4.72130859 9.22052734 4.72130859 9.22052734 3.08203125 9.23828125 C1.68489757 9.24765799 0.28776201 9.25675831 -1.109375 9.265625 C-1.81642578 9.27400391 -2.52347656 9.28238281 -3.25195312 9.29101562 C-5.05881059 9.29966088 -6.86575103 9.25532511 -8.671875 9.203125 C-9.671875 8.203125 -9.671875 8.203125 -9.796875 4.703125 C-9.5654136 -1.77779411 -5.353289 0.02663705 0 0 Z " fill="#050505" transform="translate(494.671875,406.796875)"/>
<path d="M0 0 C3.5 0.25 3.5 0.25 5.5 2.25 C5.68791915 4.87025721 5.75185785 7.38391315 5.72705078 10.00439453 C5.72734283 10.80447937 5.72763489 11.60456421 5.72793579 12.42889404 C5.72653956 15.08030953 5.7109647 17.73144594 5.6953125 20.3828125 C5.69158341 22.21841274 5.68873595 24.05401498 5.68673706 25.88961792 C5.6790924 30.72627232 5.6594368 35.56280703 5.6373291 40.39941406 C5.61688857 45.33266582 5.60773919 50.26593687 5.59765625 55.19921875 C5.57619167 64.88286515 5.54204572 74.56642263 5.5 84.25 C6.12044189 84.23428955 6.74088379 84.2185791 7.38012695 84.20239258 C10.19082528 84.14003786 13.00137812 84.10100852 15.8125 84.0625 C16.78896484 84.03736328 17.76542969 84.01222656 18.77148438 83.98632812 C20.17817383 83.97182617 20.17817383 83.97182617 21.61328125 83.95703125 C22.90939331 83.93346558 22.90939331 83.93346558 24.23168945 83.90942383 C26.5 84.25 26.5 84.25 28.31713867 85.60424805 C29.5 87.25 29.5 87.25 29.3125 89.875 C28.5 92.25 28.5 92.25 26.5 93.25 C22.07418131 93.46141314 17.64465755 93.43579708 13.21435547 93.43530273 C11.0085935 93.43749147 8.80332984 93.4556586 6.59765625 93.47460938 C5.20052255 93.47754293 3.80338647 93.47952798 2.40625 93.48046875 C1.13072266 93.48457764 -0.14480469 93.48868652 -1.45898438 93.49291992 C-4.5 93.25 -4.5 93.25 -6.5 91.25 C-6.74723816 88.74803162 -6.74723816 88.74803162 -6.74291992 85.54467773 C-6.74599655 84.34419296 -6.74907318 83.14370819 -6.75224304 81.90684509 C-6.74505753 80.59567215 -6.73787201 79.28449921 -6.73046875 77.93359375 C-6.72927408 76.56144759 -6.72882439 75.18930059 -6.7290802 73.81715393 C-6.72751093 70.92093873 -6.71920927 68.02484632 -6.70581055 65.12866211 C-6.68918213 61.49599974 -6.68509098 57.86347531 -6.685606 54.23077965 C-6.68522261 40.41187116 -6.58147908 26.59733963 -6.11328125 12.78515625 C-6.08316452 11.73839218 -6.05304779 10.69162811 -6.02201843 9.61314392 C-5.98421768 8.66451981 -5.94641693 7.71589569 -5.9074707 6.73852539 C-5.87724319 5.91445694 -5.84701569 5.09038849 -5.81587219 4.24134827 C-5.21073092 0.42636533 -3.65030896 0.26073635 0 0 Z " fill="#0B0B0B" transform="translate(758.5,406.75)"/>
<path d="M0 0 C12.97701149 0 12.97701149 0 19 5 C25.10478087 12.32317202 26.82472096 18.56797998 26 28 C23.9986611 37.65217159 20.53792767 46.86217925 12.4375 52.9375 C8.23834745 55.61977806 5.05998865 57 0 57 C0 38.19 0 19.38 0 0 Z " fill="#FBFBFB" transform="translate(595,528)"/>
<path d="M0 0 C4.74424521 2.63569178 7.61931493 5.6079448 9.375 10.875 C10.02624829 16.41061049 8.94625607 19.62235509 5.8515625 24.07421875 C3.11044613 27.41722046 0.5365872 29.50177631 -3.796875 30.25 C-9.21889109 30.54111496 -12.41805242 29.49493164 -16.625 25.875 C-20.67328674 21.38906064 -21.99605299 18.05142236 -21.90625 11.93359375 C-21.27653255 7.32441188 -18.35379725 4.51703568 -15 1.5625 C-9.99747681 -1.99192437 -5.8505328 -1.81568259 0 0 Z " fill="#050505" transform="translate(406.625,379.125)"/>
<path d="M0 0 C0.22237053 5.32994354 -0.47282512 9.9353865 -2 15.0625 C-2.21930176 15.79911865 -2.43860352 16.5357373 -2.66455078 17.29467773 C-6.84193866 30.4842617 -14.22192354 42.97340816 -26.30078125 50.1875 C-28 51 -28 51 -30 51 C-28.11405574 33.87254705 -20.28510573 13.28510573 -8 1 C-4.8744668 -0.84172494 -3.46375389 -1.23705496 0 0 Z " fill="#080808" transform="translate(255,188)"/>
<path d="M0 0 C6.33370094 0 8.71207452 0.10660682 14 3 C17.52443205 6.80267668 19.39057128 9.53785057 19.26953125 14.80859375 C18.29659015 22.71902794 15.29602982 28.58404028 9.29296875 33.7578125 C7 35 7 35 0 36 C0 24.12 0 12.24 0 0 Z " fill="#F8F8F8" transform="translate(553,419)"/>
<path d="M0 0 C0.99 0 1.98 0 3 0 C5.32519553 13.00590605 7.44953256 25.78878144 8 39 C3.71 39 -0.58 39 -5 39 C-4.53468359 31.24472646 -3.91526458 23.68861692 -2.54296875 16.04296875 C-1.93208078 12.61935916 -1.39905093 9.18792278 -0.875 5.75 C-0.70742188 4.65171875 -0.53984375 3.5534375 -0.3671875 2.421875 C-0.24601563 1.62265625 -0.12484375 0.8234375 0 0 Z " fill="#EFEFEF" transform="translate(613,427)"/>
<path d="M0 0 C0.75 1.5625 0.75 1.5625 1 4 C-0.77518861 8.04743002 -2.04740285 10.27974362 -5.5625 12.9375 C-12.91773432 15.21093606 -19.61717159 14.84089971 -26.44140625 11.265625 C-28.32809455 9.73357736 -29.06300026 8.21896456 -30 6 C-29.20078125 5.87882812 -28.4015625 5.75765625 -27.578125 5.6328125 C-24.05111793 5.09465414 -20.52555488 4.54758618 -17 4 C-15.89140625 3.83242188 -14.7828125 3.66484375 -13.640625 3.4921875 C-12.60421875 3.32976562 -11.5678125 3.16734375 -10.5 3 C-9.5615625 2.855625 -8.623125 2.71125 -7.65625 2.5625 C-4.93492218 1.98621881 -2.54676825 1.10729054 0 0 Z " fill="#0B0B0B" transform="translate(432,273)"/>
<path d="M0 0 C1.88391785 3.26545761 2.49287967 6.28111761 3 10 C1.02 8.68 -0.96 7.36 -3 6 C-2.01 4.02 -1.02 2.04 0 0 Z " fill="#222222" transform="translate(220,471)"/>
</svg>
